<svg width="1024" height="1024" viewBox="0 0 1024 1024" fill="none" xmlns="http://www.w3.org/2000/svg">
<path d="M318.6 709.44V572.24C315.24 574.853 311.507 576.813 307.4 578.12C303.48 579.427 298.16 580.36 291.44 580.92C284.907 581.293 275.76 581.48 264 581.48V539.2C272.213 539.2 279.307 539.013 285.28 538.64C291.44 538.08 296.667 536.68 300.96 534.44C305.44 532.013 309.267 528.093 312.44 522.68C315.613 517.267 318.413 509.707 320.84 500H367.32V709.44H318.6Z" fill="black" style="fill:black;fill-opacity:1;"/>
<path d="M186.56 548.24C215.36 512.72 243.2 469.52 270.08 418.64C290.24 381.68 306.08 345.44 317.6 309.92C321.44 301.28 323.6 292.64 324.08 284C325.04 277.76 325.04 269.84 324.08 260.24L346.4 249.44L398.24 282.56C404.48 286.88 405.2 293.36 400.4 302C384.08 334.64 364.4 368 341.36 402.08C354.32 399.2 367.28 396.08 380.24 392.72C390.32 390.32 398.96 386.96 406.16 382.64C409.52 380.72 414.8 377.12 422 371.84C423.44 370.4 424.64 369.44 425.6 368.96C429.92 366.56 433.28 366.56 435.68 368.96L478.88 418.64C476.96 422.48 472.88 425.36 466.64 427.28C457.52 431.12 450.32 434.48 445.04 437.36C441.68 439.28 436.64 442.88 429.92 448.16C427.04 450.08 424.88 451.76 423.44 453.2L386 486.32L371.6 479.12L398.96 404.96L328.4 420.8C325.52 426.08 322.16 430.88 318.32 435.2C278.96 489.44 238.64 531.2 197.36 560.48L186.56 548.24ZM379.52 736.88C427.52 682.16 459.68 623.6 476 561.2C489.92 511.76 494.24 456.32 488.96 394.88C488.48 385.28 487.04 376.88 484.64 369.68C482.72 362.96 479.12 355.76 473.84 348.08L491.12 330.08L535.76 351.68C557.84 339.2 574.88 328.4 586.88 319.28C603.2 307.28 618.56 293.84 632.96 278.96C639.2 273.68 641.6 265.04 640.16 253.04L663.2 242.96L705.68 285.44C714.8 295.52 715.04 303.2 706.4 308.48C681.92 322.88 651.44 337.04 614.96 350.96C589.52 360.56 570.32 367.04 557.36 370.4C557.84 372.32 558.08 374.24 558.08 376.16C558.56 453.92 549.2 518.48 530 569.84C505.52 639.92 459.68 698.96 392.48 746.96L379.52 736.88ZM458.72 720.32C520.16 690.56 566.24 652.4 596.96 605.84C582.08 584.72 566.24 563.36 549.44 541.76L564.56 527.36L615.68 572C632 538.4 643.28 501.2 649.52 460.4L571.76 480.56L559.52 468.32C568.16 466.88 576.8 464.96 585.44 462.56C602.24 458.72 616.88 454.64 629.36 450.32C635.12 448.88 642.08 444.32 650.24 436.64C653.6 434.24 657.68 430.4 662.48 425.12C663.92 423.68 665.12 422.48 666.08 421.52C669.92 418.16 673.52 417.44 676.88 419.36L730.88 456.08C730.4 459.44 728.96 462.56 726.56 465.44L717.92 477.68C715.04 482 712.88 486.8 711.44 492.08C697.52 540.56 680.96 579.68 661.76 609.44C687.68 629.12 709.52 644.24 727.28 654.8C763.28 678.8 801.44 698 841.76 712.4L836.72 728.24C818 724.4 800.24 725.6 783.44 731.84C773.84 735.2 762.08 741.68 748.16 751.28C738.08 758.96 728.96 758.96 720.8 751.28C691.52 724.4 661.04 690.56 629.36 649.76C593.84 687.2 539.6 715.52 466.64 734.72L458.72 720.32Z" fill="black" style="fill:black;fill-opacity:1;"/>
</svg>
