<svg xmlns="http://www.w3.org/2000/svg" viewBox="0 0 320 186" width="320" height="186">
  <g fill="#F47060"><path d="M140.0 20.08 143.28 20.16 143.68 20.56Q144.48 20.88 145.2 21.64Q145.92 22.4 146.64 22.72Q146.8 23.52 146.8 24.32Q146.8 25.2 146.64 26.0L146.32 26.24L145.76 26.4L145.36 26.96Q145.36 27.92 145.2 28.12Q145.04 28.32 144.24 28.32Q143.76 28.96 143.6 29.76Q142.72 30.64 142.56 31.92L142.72 32.72L143.52 32.88Q144.32 32.8 145.32 32.2Q146.32 31.6 147.04 31.6Q147.12 31.6 147.48 31.72Q147.84 31.84 148.0 32.0L148.16 32.24L148.72 32.4L149.36 32.24Q149.68 31.6 150.6 31.12Q151.52 30.64 152.24 30.64Q153.6 30.64 154.16 31.84Q155.04 32.4 155.68 34.24L156.16 34.64Q156.32 35.28 156.32 35.6Q156.32 35.84 156.16 36.4L156.08 36.56Q155.76 36.88 154.76 38.52Q153.76 40.16 153.76 40.56H153.36L153.44 40.8Q153.44 41.6 152.16 42.8Q151.92 43.6 151.76 44.72Q151.44 47.76 149.68 48.4Q149.2 48.56 148.64 49.12Q148.56 49.52 148.4 50.28Q148.24 51.04 148.04 51.4Q147.84 51.76 147.12 52.0Q146.8 52.32 146.8 52.72H146.4Q146.4 53.6 146.16 54.56L145.28 55.44L143.6 55.92L143.2 56.4Q143.04 57.36 143.04 58.4Q143.04 59.84 143.36 61.12Q143.04 61.92 143.04 62.8Q143.04 63.28 143.28 63.92Q143.68 65.12 143.68 66.4L143.6 68.72Q143.6 69.52 143.68 70.24L144.48 70.56Q145.28 70.96 145.76 70.96Q146.08 70.96 146.72 70.8V70.56H147.12Q147.12 69.76 147.72 69.44Q148.32 69.12 149.6 68.8L150.72 68.56Q151.52 68.8 151.84 69.6Q151.76 70.08 151.2 71.08Q150.64 72.08 150.32 72.16Q149.6 72.4 148.8 73.28L148.64 73.44Q148.4 74.24 147.92 74.8L146.8 75.28L146.64 75.6Q145.84 76.08 145.04 77.28Q144.24 78.48 143.68 78.8Q143.36 79.92 142.72 80.32Q142.48 81.12 141.2 82.24Q140.64 83.28 140.04 83.8Q139.44 84.32 138.96 85.12Q138.32 85.28 136.72 85.28V84.88Q136.24 84.88 135.76 84.64L135.12 83.92Q133.84 82.64 133.04 81.48Q132.24 80.32 132.24 79.12L132.48 78.4Q132.88 77.84 133.76 77.12Q134.64 76.4 134.96 75.84Q136.32 74.96 137.28 74.96H137.52L137.68 74.32Q137.2 73.12 137.2 72.32Q137.2 71.68 137.44 70.76Q137.68 69.84 137.68 69.2Q137.68 68.72 137.56 68.0Q137.44 67.28 137.44 66.8L137.68 66.24Q138.16 65.28 138.16 64.8Q138.16 63.92 137.8 62.44Q137.44 60.96 137.44 60.0L137.92 58.88Q137.92 57.6 137.52 55.2L137.84 54.96Q137.84 50.8 137.44 48.96Q137.6 48.24 137.8 46.88Q138.0 45.52 138.16 44.8L138.64 44.4L139.36 44.24L139.52 44.0H139.44L141.28 44.4Q141.44 44.64 141.76 44.88Q142.08 45.12 142.24 45.44L142.72 45.76Q143.04 46.64 143.36 48.08L143.76 49.84L144.16 50.16Q144.32 50.48 144.32 51.2Q144.32 51.68 142.8 52.16L142.4 52.8Q142.4 53.12 143.28 53.44Q143.52 53.44 144.16 53.2L144.4 53.12Q144.56 52.8 145.12 52.32L145.28 52.16Q145.6 50.48 145.84 48.32Q146.08 46.48 146.28 45.84Q146.48 45.2 147.28 44.4Q147.52 43.92 147.52 43.6Q148.24 42.0 148.4 39.68Q148.56 37.92 149.04 37.04L148.8 36.4Q146.8 35.2 145.28 35.2Q144.96 35.2 144.16 35.44L143.52 35.6Q143.12 35.52 142.32 35.2L141.6 35.44L141.28 35.92Q140.8 36.0 140.32 36.4L140.16 36.72Q139.36 36.96 138.8 38.2Q138.24 39.44 137.76 39.84L137.2 40.0L136.8 40.48V41.04H136.4L136.24 42.56Q136.24 42.96 136.36 43.6Q136.48 44.24 136.48 44.56Q136.48 44.96 135.36 44.96V45.36Q134.88 45.36 134.24 45.68Q133.92 46.16 133.68 46.96Q133.04 47.12 132.64 47.88Q132.24 48.64 131.28 49.6Q130.8 49.76 130.4 50.16Q129.84 51.92 128.64 52.64Q127.52 53.6 126.8 54.48Q126.64 54.64 126.24 54.76Q125.84 54.88 125.68 54.96Q125.2 55.68 124.32 55.68Q123.52 55.68 123.12 55.48Q122.72 55.28 122.0 54.56Q122.0 53.84 122.08 53.6Q122.16 53.36 122.56 52.72Q123.44 52.0 123.44 51.2H123.84Q123.84 50.72 124.08 50.24Q124.4 50.0 125.0 49.32Q125.6 48.64 126.16 48.64L126.4 48.72V48.32H126.88L127.36 47.92L127.6 46.96Q127.92 45.6 128.28 44.92Q128.64 44.24 129.44 44.0Q129.68 43.84 129.96 43.48Q130.24 43.12 130.48 43.04Q130.56 42.64 131.16 41.72Q131.76 40.8 131.76 40.32Q132.16 39.6 132.56 38.4Q133.2 36.48 134.56 34.96Q135.28 34.16 135.28 33.2V32.8L135.12 32.72L135.28 32.64L135.2 32.24Q135.2 31.92 135.48 31.4Q135.76 30.88 135.76 30.32Q135.76 30.0 135.64 29.6Q135.52 29.2 135.52 28.88Q135.76 28.48 136.08 28.32Q136.32 27.76 136.64 26.08Q137.52 22.08 139.2 21.04Q139.68 20.24 140.0 20.08ZM181.36 18.4Q181.44 18.48 181.84 18.56Q182.24 18.64 182.4 18.8L182.56 19.04Q183.2 19.36 184.56 19.64Q185.92 19.92 186.56 20.48Q186.72 20.88 186.72 21.2V21.36H187.12Q187.12 21.76 189.84 23.76V24.0Q189.68 25.2 189.68 26.88Q189.68 27.28 189.04 27.52Q188.72 27.6 188.56 27.68Q187.68 28.88 186.16 29.28L185.6 29.04L185.2 28.64L184.64 28.4Q184.0 28.72 183.0 28.88Q182.0 29.04 181.44 29.2Q181.12 29.76 180.72 29.92Q180.08 29.92 178.96 30.04Q177.84 30.16 177.2 30.16Q177.04 30.16 176.68 30.04Q176.32 29.92 176.16 29.92Q175.76 29.92 173.0 30.32Q170.24 30.72 169.52 31.12L169.12 31.6Q168.32 31.6 167.84 31.44L167.44 31.36Q167.04 31.36 166.32 31.6L166.08 32.16Q165.92 32.24 165.6 32.56L165.44 34.24Q165.2 36.48 164.96 37.76L165.12 38.56Q165.76 38.96 166.0 38.96L166.08 38.88Q166.32 38.88 166.32 39.84H166.72V40.08Q167.52 40.24 168.16 40.24Q168.96 40.24 170.4 39.84Q171.68 40.16 172.88 40.16Q173.52 40.16 174.52 40.0Q175.52 39.84 176.16 39.84Q176.64 39.84 177.4 40.0Q178.16 40.16 178.64 40.16Q179.04 40.16 179.76 39.92L180.16 39.52Q180.8 39.28 181.88 38.84Q182.96 38.4 183.6 38.08Q184.64 38.08 184.8 38.16H184.88Q185.12 38.16 185.68 38.08L186.16 38.16L186.56 38.56Q188.16 39.12 190.08 42.0L190.48 42.32L190.64 42.8L190.4 43.36L190.0 43.76Q189.68 44.8 188.72 45.6Q188.0 46.24 187.6 46.72L187.2 46.8Q186.48 46.8 186.32 47.52L186.56 48.16Q186.64 48.48 186.72 49.28V49.6H187.12L187.2 50.08Q187.52 50.56 187.68 51.04L187.52 51.44Q187.12 52.24 187.12 52.72H186.72V53.04L186.48 53.6L186.08 54.0Q185.84 54.72 185.84 55.04Q185.84 55.36 186.0 55.92Q186.16 56.48 186.24 56.72L186.0 57.52Q185.6 57.76 185.2 58.56L184.96 58.96Q184.4 59.36 183.6 60.24L183.04 60.8Q182.8 61.6 182.56 63.0Q182.32 64.4 182.0 65.28Q180.56 66.4 180.0 67.92L179.6 68.16L179.36 68.88Q179.36 69.2 179.6 69.68Q180.32 70.0 181.28 70.16Q182.24 70.32 183.04 71.12Q183.52 72.24 184.0 72.6Q184.48 72.96 186.32 73.52L186.64 73.6L187.52 74.56L187.68 75.04L188.08 75.36Q189.04 75.52 189.8 76.08Q190.56 76.64 191.6 77.68Q192.8 78.96 193.44 79.2L193.68 79.6Q194.24 80.4 195.24 80.8Q196.24 81.2 196.48 81.4Q196.72 81.6 196.72 82.24V83.92Q196.72 84.32 196.08 84.48Q195.68 84.64 195.56 84.76Q195.44 84.88 195.28 85.12Q194.88 85.84 194.56 86.16Q193.84 86.4 192.84 86.56Q191.84 86.72 190.88 87.2L190.56 87.6L188.16 88.32Q187.92 88.32 186.72 87.68Q185.52 87.04 185.52 86.8Q185.28 86.08 184.8 85.28L184.4 85.12L184.16 84.64L183.68 84.32L183.44 83.76V83.36H183.04Q183.04 83.12 182.56 82.6Q182.08 82.08 181.68 81.84L181.36 80.96Q181.04 79.84 180.72 79.28L180.32 79.04Q179.92 78.4 179.52 77.36L179.2 77.04Q178.64 76.88 178.16 76.36Q177.68 75.84 177.2 75.68Q176.16 76.0 174.48 76.4L173.76 77.28L173.68 77.52H173.28Q173.28 78.56 173.04 79.36Q172.72 79.6 172.32 80.08Q171.92 80.56 171.68 80.8Q170.32 81.36 169.76 81.68Q169.76 82.4 169.52 82.4H169.36Q169.04 82.4 168.72 82.72Q167.44 82.96 167.12 83.24Q166.8 83.52 166.72 84.32L166.56 85.36Q165.92 85.68 165.68 86.16L165.04 86.4Q158.88 88.32 158.8 88.32V88.72Q158.56 88.72 158.24 89.04L157.68 89.2Q157.04 89.04 156.4 88.28Q155.76 87.52 155.28 87.2L155.12 86.72Q155.44 85.36 156.72 84.08Q157.6 83.12 158.16 82.4L159.76 81.68H160.08V81.28H160.32L160.56 81.04Q160.56 80.56 160.68 80.44Q160.8 80.32 161.28 80.32L162.24 80.72L162.8 80.48Q163.12 80.16 163.12 79.76H163.52Q163.52 79.28 163.68 79.08Q163.84 78.88 164.32 78.56Q165.12 78.08 165.68 77.52L165.92 77.44Q166.48 77.28 166.64 77.12Q166.96 76.56 168.32 76.0Q168.72 75.36 169.36 75.36H169.6V74.96H169.84Q170.32 74.32 170.6 73.48Q170.88 72.64 171.24 72.08Q171.6 71.52 172.72 70.72Q172.96 70.0 172.96 69.6Q172.96 68.56 172.4 67.28Q171.84 66.0 170.8 64.0Q169.04 60.88 169.04 59.84Q169.04 59.28 168.28 58.04Q167.52 56.8 167.52 56.0Q167.52 55.68 167.72 55.04Q167.92 54.4 167.92 54.08Q167.92 53.68 167.68 52.96Q167.36 52.72 166.88 52.24L166.64 51.6V51.12H167.04V49.76H166.64Q166.64 49.28 166.32 48.64V48.32Q166.4 48.08 166.52 47.52Q166.64 46.96 166.88 46.64Q168.0 45.84 168.0 45.04L167.76 44.48Q167.2 44.32 166.88 44.0L166.64 43.44Q166.16 42.96 165.76 42.96Q165.36 42.96 164.8 43.52Q164.8 43.92 164.56 44.4Q163.84 45.04 163.84 45.84Q163.84 46.24 164.08 46.72Q164.72 46.72 164.8 46.96V47.84Q164.8 47.92 164.68 48.24Q164.56 48.56 164.48 48.68Q164.4 48.8 164.08 49.12L163.92 49.68L164.24 50.64Q164.0 51.28 163.6 52.0L163.12 57.92Q162.72 58.32 162.72 58.64L162.8 58.72Q162.8 59.04 162.08 59.04L162.0 59.28Q161.84 60.16 161.84 60.64Q161.84 61.36 162.32 62.8Q162.24 63.12 161.92 63.68Q161.2 64.88 161.08 66.24Q160.96 67.6 160.32 68.72L160.24 69.2H159.84Q159.84 70.0 159.76 70.32Q159.68 70.64 159.36 71.28Q159.36 71.84 159.0 72.48Q158.64 73.12 158.08 73.12L157.76 73.52Q157.44 75.04 156.64 75.04Q156.24 75.44 156.08 76.0Q155.44 76.64 154.4 79.28Q153.68 81.36 152.56 81.84Q152.32 82.24 151.68 82.72L151.44 83.2Q151.04 83.92 150.72 84.24Q150.24 84.4 149.84 84.72Q149.68 85.68 149.32 85.96Q148.96 86.24 148.24 86.4Q147.52 86.56 147.04 86.72L146.72 87.12Q146.16 87.28 144.64 87.28Q144.32 87.28 143.92 86.32L143.6 85.76Q143.76 85.36 144.12 85.0Q144.48 84.64 144.64 84.4Q144.64 83.76 144.8 83.36Q145.6 83.2 146.4 82.88Q146.48 82.56 146.64 81.88Q146.8 81.2 146.96 80.72L147.36 80.48Q148.0 79.68 148.8 78.96Q149.04 78.08 149.76 77.52Q150.72 77.12 151.2 76.56Q151.76 76.4 152.16 76.0Q152.48 74.96 152.6 73.48Q152.72 72.0 152.88 71.12Q153.36 70.48 153.68 70.24L154.48 70.08L155.12 69.44L155.28 68.64L155.52 68.32L155.92 68.16Q156.0 67.44 156.12 64.64Q156.24 61.84 156.4 61.24Q156.56 60.64 156.64 59.84Q157.04 59.84 157.76 58.0Q157.92 57.6 158.72 49.16Q159.52 40.72 159.52 39.68Q159.52 38.48 159.24 35.92Q158.96 33.36 158.64 32.64L159.04 31.44Q158.08 29.04 158.08 28.16Q158.08 28.08 158.2 27.76Q158.32 27.44 158.32 27.28L160.24 25.36H160.64Q161.2 25.6 162.16 26.12Q163.12 26.64 163.76 26.84Q164.4 27.04 165.44 27.04Q165.92 27.04 166.88 26.88L167.28 26.8L167.6 26.4Q168.16 26.24 169.12 25.68L169.76 25.36L170.0 24.96Q170.24 24.88 170.56 24.56Q170.56 24.16 170.6 24.04Q170.64 23.92 170.88 23.92L171.28 23.76L171.68 23.44L174.72 22.96Q174.8 22.88 174.96 22.56Q175.12 22.24 175.56 22.0Q176.0 21.76 177.28 21.52L178.16 21.36Q178.64 20.96 179.32 20.0Q180.0 19.04 180.64 18.56ZM165.28 41.12Q165.28 41.36 165.68 41.76Q166.08 41.36 166.08 41.12L165.68 40.56ZM175.12 42.96 174.4 43.44Q173.6 42.96 172.4 42.96Q171.92 42.96 170.72 43.2Q170.48 43.36 170.28 43.88Q170.08 44.4 169.52 44.96Q169.28 45.68 169.28 46.08Q169.28 46.48 169.52 47.2Q170.16 47.84 170.48 48.64Q170.48 49.04 170.36 49.68Q170.24 50.32 170.24 50.64Q170.24 51.12 170.4 52.08L170.48 52.48Q170.96 52.96 171.76 55.68Q172.56 58.4 173.28 59.84V60.32H173.68Q173.68 60.64 173.88 60.8Q174.08 60.96 174.24 61.28Q174.72 62.32 175.12 62.72L175.44 62.32Q175.92 61.68 176.32 61.28Q176.56 60.8 176.56 60.4Q176.56 59.76 176.08 59.12Q176.32 58.8 177.04 58.16Q178.24 57.28 178.88 56.32Q179.52 55.36 179.52 53.76Q179.52 53.28 179.28 52.52Q179.04 51.76 179.04 51.36Q179.04 50.56 180.08 49.36V49.12H180.48V46.88H180.08V46.32L179.84 45.84Q179.6 45.68 179.28 45.36H179.04V44.96H178.8L178.32 42.96L177.6 42.48L176.96 42.8Q176.24 43.2 175.92 43.44Z"/></g>
  <g fill="#1A1208A6"><path d="M90.66 119.69H90.84L91.62 120.03V120.59L91.31 121.05Q90.41 121.14 90.41 121.44Q90.18 122.65 89.96 122.65V122.97Q89.72 123.5 89.63 124.11Q89.49 124.11 89.25 124.75Q89.25 124.96 89.06 125.32L88.8 126.1V126.81Q88.68 127.06 88.49 127.06V127.94Q88.43 128.17 87.92 128.78Q87.92 129.24 87.65 129.24H87.59V129.55Q87.59 129.64 87.21 129.75Q87.21 129.87 87.08 129.87H86.9Q86.66 129.73 86.43 129.29V129.1L86.57 128.92L86.3 128.28V127.94Q86.04 127.94 85.92 126.86Q85.74 126.76 85.55 126.36V126.16L85.68 125.97V125.78L85.55 125.59V125.14Q85.29 125.14 85.29 125.0V124.69Q85.07 124.69 84.98 124.24H84.84Q84.84 124.34 84.39 124.75Q84.39 125.14 84.08 125.71Q84.08 126.56 83.63 126.61V126.92Q83.63 127.06 83.37 127.06V127.83L83.06 128.28V129.1Q82.49 129.96 82.35 130.0H82.28Q82.17 130.0 81.77 129.35Q81.71 129.35 81.71 129.29V128.72L81.45 128.41V127.77Q81.3 127.77 80.81 127.06Q80.69 127.06 80.69 126.92V126.22L80.36 125.28Q80.28 125.28 80.1 124.69L80.24 124.5V124.44H79.92Q79.59 123.97 79.41 122.97Q79.1 122.97 79.02 122.14Q78.83 122.12 78.71 121.75Q78.53 121.75 77.87 121.05V120.86Q77.87 120.73 78.06 120.73V120.4Q78.29 120.01 78.63 119.89L78.95 119.95H80.43Q80.58 120.17 81.38 120.59V120.73Q81.29 120.73 81.06 121.17H80.87V121.38L81.0 121.57Q80.87 121.57 80.87 121.67V122.26Q81.03 122.44 81.26 123.08V123.53Q81.47 123.53 81.51 124.06Q81.6 124.06 81.71 124.24V124.81Q81.93 124.81 82.16 125.92Q82.38 125.92 82.41 126.55L82.65 126.73H82.73V126.42L83.18 125.97L83.06 125.78Q83.31 125.75 83.63 124.75Q83.63 124.69 83.57 124.69L83.63 124.38V123.92Q83.63 123.79 83.81 123.79V123.47L84.2 122.71V122.14L83.87 121.38Q83.63 121.27 83.63 121.17Q83.63 121.05 83.81 121.05V120.86H83.49Q83.18 120.69 83.18 120.59V120.53L83.49 120.16H83.81Q83.81 119.94 84.39 119.89L84.71 119.95H86.43L87.0 120.4V120.73Q87.0 121.02 86.25 121.11Q86.25 121.17 86.19 121.17H85.61Q85.44 121.3 85.29 121.3V121.44Q85.73 121.44 85.73 121.75Q85.86 121.77 85.86 121.87V122.45Q86.28 122.97 86.63 124.0Q86.76 124.02 86.76 124.11V124.75Q87.0 125.5 87.33 126.03V126.49H87.59Q87.59 126.3 87.71 126.3H88.04V126.16Q87.84 126.16 87.84 126.1Q87.92 125.97 87.92 125.92Q87.78 125.92 87.78 125.78V125.71L87.92 125.52V124.94Q88.07 124.44 88.22 124.44V124.11Q88.53 123.53 88.68 123.53V123.22L88.8 123.03V122.45Q88.92 122.32 89.06 121.38Q89.19 121.3 89.25 121.3V121.05H88.92Q88.35 120.5 88.35 120.46Q88.82 119.83 88.92 119.83H90.47Z M93.18 119.92 93.47 120.06 94.16 119.97Q94.32 120.13 94.32 120.69Q94.32 120.72 94.28 121.24L94.32 121.54Q94.07 121.87 94.07 122.0V122.14Q94.32 122.72 94.32 122.89L94.28 123.2L94.32 123.49L94.28 123.79Q94.41 124.66 94.41 124.81H94.55Q95.21 123.88 95.64 123.88Q95.94 123.88 96.38 123.7H96.5Q97.01 123.7 97.01 124.02Q97.16 124.02 97.22 124.06Q97.37 123.97 97.56 123.97Q98.21 124.33 98.42 124.97V126.0Q98.42 126.16 98.37 126.39Q98.42 126.46 98.42 126.56Q98.42 126.7 98.37 126.94Q98.42 128.0 98.49 128.59V128.91Q98.96 129.13 99.12 129.32Q99.3 129.67 99.3 129.78Q99.23 130.04 98.79 130.04Q98.54 129.93 97.17 129.78Q97.17 129.75 97.05 129.75Q96.92 129.82 96.8 129.82H96.71Q96.5 129.72 96.5 129.49V129.4Q96.56 129.35 96.89 129.19Q97.01 128.95 97.17 127.15V126.76Q97.1 126.14 97.1 126.08V125.32Q97.1 125.29 97.14 125.29Q97.14 124.6 96.02 124.21Q94.92 124.69 94.92 124.81Q94.28 126.3 94.28 126.43L94.32 126.69Q94.28 127.17 94.28 127.54Q94.44 128.43 94.55 128.54V128.63L94.5 128.94Q95.33 129.37 95.43 129.67Q95.33 129.91 95.15 129.91Q94.94 129.91 93.86 129.87Q93.59 129.96 93.47 129.96H92.88Q92.28 129.96 92.28 129.78V129.67Q92.28 129.52 92.93 129.32Q93.14 129.32 93.23 128.03Q93.09 127.81 93.09 127.7Q93.09 127.56 93.14 127.31L93.05 125.67L93.14 124.97Q93.09 124.9 93.05 124.6Q93.09 124.44 93.09 124.3L92.96 124.21Q92.96 124.08 93.0 123.92Q92.96 123.13 92.96 122.52V122.31Q92.96 122.22 93.05 121.89Q93.05 121.57 92.96 121.57L93.0 121.38V121.24Q93.0 121.06 92.84 120.52H92.16Q91.94 120.52 91.86 120.34V120.22Q91.94 120.06 92.16 120.06H92.37Q92.52 120.06 92.76 120.1Z M102.35 123.43H102.53Q102.71 123.43 102.83 123.44Q103.02 123.43 103.19 123.43H103.29Q103.46 123.43 103.71 123.7Q104.55 123.7 104.9 124.83V124.93Q104.9 124.96 104.82 125.22V125.25Q104.82 125.55 104.87 125.88L104.79 126.25L104.87 127.03Q104.79 127.63 104.79 127.77Q104.82 127.94 104.82 128.03Q104.76 128.19 104.76 128.29L104.82 128.32Q105.03 128.03 105.12 128.03Q105.17 128.0 105.29 128.0H105.42Q105.75 128.17 105.75 128.77Q105.75 129.44 105.08 129.85Q104.81 129.85 104.49 130.0Q103.4 129.66 103.4 129.19H103.34Q103.13 129.38 102.74 129.58Q102.74 129.7 102.35 129.75Q102.26 129.85 102.11 129.85H101.64Q101.4 129.93 101.37 129.93Q100.86 129.93 100.53 129.37Q100.53 129.34 100.19 129.12Q100.16 128.75 100.01 128.4Q100.29 126.95 100.64 126.95Q100.77 126.7 101.19 126.5Q101.19 126.42 101.75 126.22Q101.75 126.19 101.79 126.19L102.0 126.22Q102.2 126.08 102.3 126.08H102.38Q102.53 126.08 102.74 126.25H102.87Q103.04 126.16 103.26 125.84Q103.43 125.77 103.44 125.69V125.56Q103.29 125.41 103.26 125.03Q103.17 124.96 103.01 124.54Q102.81 124.36 102.66 124.36L102.15 124.51L101.97 124.48Q101.9 124.51 101.85 124.51V124.54Q102.0 124.92 102.0 125.22V125.32Q102.0 125.58 101.34 126.11Q100.98 126.01 100.38 125.32V125.17L100.46 125.06V124.7Q100.55 124.53 100.98 124.15Q101.15 124.02 101.27 123.59H101.34Q101.78 123.59 102.35 123.43ZM101.34 127.9Q101.57 128.71 101.82 128.71L102.08 128.77H102.48L102.74 128.63H102.98Q103.26 128.63 103.26 128.37Q103.26 128.28 103.23 128.22Q103.26 127.56 103.37 127.14Q103.25 126.75 103.19 126.67L102.0 126.92Q102.0 126.98 101.55 127.19Q101.55 127.28 101.37 127.63Q101.34 127.81 101.34 127.9Z M107.96 121.81H108.8Q109.28 121.81 109.28 122.23Q109.19 123.37 109.08 123.61Q109.14 123.7 109.14 123.76H109.41Q109.49 123.76 109.61 123.23L110.03 122.89H110.13Q110.69 123.19 110.69 123.66Q110.75 123.66 110.75 123.7V123.81Q110.67 124.51 110.22 124.51Q110.22 124.45 110.07 124.38H109.89Q109.28 124.44 109.28 124.69Q109.23 125.03 109.23 125.08Q109.23 125.19 109.28 125.28Q109.23 125.68 109.23 125.94V126.5L109.38 127.18Q109.23 128.11 109.23 128.35Q109.23 129.18 109.65 129.58H109.76Q109.89 129.58 109.89 129.4L109.85 129.07Q110.0 128.49 110.27 128.49Q110.27 128.44 110.46 128.35H110.51Q110.76 128.35 110.99 129.44Q110.76 130.25 109.23 130.3H109.04Q108.56 130.3 107.85 129.25V128.83Q107.85 128.37 107.76 127.21Q107.85 127.06 107.85 126.92V126.88Q107.61 126.56 107.61 126.42V126.37Q107.61 125.78 107.96 125.08Q107.96 124.81 108.0 124.75Q108.0 124.69 107.81 124.51L107.48 124.57H107.34Q107.1 124.57 107.1 124.47L107.0 124.51H106.82Q106.67 124.51 106.58 123.95Q106.58 123.7 106.82 123.56H106.86Q107.48 123.7 107.52 123.7H107.61Q107.61 123.59 107.81 123.43Q107.57 123.04 107.57 122.16Q107.85 121.84 107.96 121.81Z M120.17 123.76Q121.44 124.21 121.44 124.53H121.56Q122.52 123.76 123.15 123.76Q125.09 123.76 125.09 124.87Q125.15 124.87 125.25 125.88Q125.15 125.88 125.15 126.04Q125.15 126.37 125.25 126.92Q125.18 126.92 124.97 127.27Q125.12 127.27 125.25 128.5Q125.15 128.51 125.15 128.62V128.68H125.19Q125.72 128.62 125.84 128.62Q125.88 128.78 126.14 128.92Q126.0 129.79 125.61 129.79Q125.18 129.7 124.97 129.56H124.61Q124.22 129.56 123.92 129.62Q123.6 129.56 123.21 129.56H123.03Q122.79 129.49 122.79 129.04V128.98Q122.85 128.84 123.62 128.56Q123.62 128.34 123.74 127.69Q123.74 127.44 123.68 127.05L123.8 126.34Q123.74 125.48 123.44 124.87Q123.23 124.75 122.97 124.75H122.73Q122.07 125.14 121.74 125.39Q121.74 125.69 121.68 126.28L121.74 126.86Q121.74 126.92 121.68 127.05Q121.74 127.27 121.74 127.45Q121.62 127.83 121.62 127.97Q121.62 128.68 122.04 128.68Q122.57 128.84 122.57 128.98V129.15Q122.34 129.56 122.27 129.56H121.74Q121.68 129.56 121.68 129.5Q121.62 129.5 121.62 129.56Q121.5 129.56 121.5 129.5L120.8 129.56H120.39Q120.21 129.7 119.63 129.85H119.1Q118.85 129.85 118.58 129.5H118.52Q118.31 129.56 118.29 129.56L118.17 129.5Q117.6 129.69 117.41 129.69H117.11Q117.06 129.69 116.64 129.56Q116.58 129.56 116.46 129.62Q116.12 129.47 116.12 129.09Q116.12 128.71 116.82 128.28Q116.82 128.22 116.76 128.22Q116.82 127.63 116.82 127.33Q116.82 127.19 116.76 127.11Q116.82 126.92 116.88 126.92Q116.76 126.39 116.76 125.98Q116.82 125.81 116.88 125.81L116.82 125.58L116.88 125.17Q116.82 124.83 116.24 124.34Q116.24 123.94 116.82 123.94Q116.88 123.94 117.0 124.0L117.35 123.94H117.75Q117.99 123.94 118.4 124.28H118.58Q118.82 124.11 120.17 123.76ZM118.17 126.34Q118.17 126.47 118.23 126.56Q118.16 127.34 118.11 127.45Q118.11 128.41 118.88 129.04Q118.88 129.21 118.98 129.21H119.16Q119.45 128.86 119.75 128.86Q120.45 128.86 120.45 128.22Q120.51 128.22 120.51 128.03V126.04Q120.51 125.05 119.87 124.58H119.52Q118.79 124.84 118.46 125.45Z M129.74 123.5H129.93Q131.37 123.5 132.0 125.55Q132.09 126.06 132.2 126.36Q132.14 126.7 132.14 126.73Q132.14 126.91 132.26 127.22Q132.23 127.84 131.9 128.25Q131.9 128.75 131.58 129.01Q131.58 129.73 129.44 130.06H129.38Q127.17 130.06 126.29 127.48L126.42 127.22Q126.35 126.55 126.35 126.03Q126.54 125.29 127.38 124.28Q128.27 123.61 129.74 123.5ZM127.71 125.44 127.7 125.45H127.67Q127.8 125.45 127.92 125.69V125.78Q127.92 126.01 127.74 126.22Q127.91 126.44 128.0 127.3L127.92 127.66Q128.4 129.18 129.0 129.18H129.38Q130.2 129.18 130.4 128.71Q130.83 128.31 130.83 126.28Q130.83 126.16 130.68 125.33H130.71Q130.5 125.08 130.46 124.61Q129.72 124.19 129.5 124.19H129.3Q128.46 124.19 127.85 125.39Z M138.08 123.43Q138.36 123.43 138.59 124.36Q138.59 125.09 138.14 125.23H137.94L137.21 124.58H136.92Q136.79 124.58 136.41 125.5L136.14 125.8L136.2 125.94V126.16Q136.2 126.31 136.07 126.31Q136.14 126.7 136.14 126.88L136.07 127.38Q136.2 127.78 136.34 128.6Q136.2 129.07 136.2 129.25Q136.44 129.25 136.56 129.18Q136.61 129.18 136.85 129.25Q137.25 129.18 137.43 129.18Q137.61 129.18 137.79 129.55Q137.6 129.97 137.28 129.97Q136.34 129.9 135.77 129.9H135.42Q135.35 129.9 135.35 129.82Q134.52 130.04 133.97 130.04Q133.47 129.84 133.47 129.4Q133.55 129.18 133.89 129.18H134.04L134.76 129.25Q134.82 128.75 134.91 128.75Q134.82 127.97 134.76 127.81Q134.84 127.69 134.84 127.53Q134.78 127.53 134.63 127.3L134.69 126.95V126.37L134.84 126.16Q134.63 125.89 134.63 125.72L134.69 125.44L134.63 125.08L134.76 124.7L134.63 124.66H133.62Q133.52 124.66 133.4 124.44Q133.4 123.85 133.7 123.85Q133.76 123.85 133.89 123.92Q134.97 123.64 135.56 123.64Q136.07 123.64 136.2 124.51H136.28Q136.91 123.67 137.94 123.43Z M141.51 123.43 142.13 123.49Q142.19 123.49 142.53 123.43Q143.52 123.43 144.78 124.66Q145.02 124.66 145.47 126.23Q145.32 126.85 145.14 126.85Q142.62 126.56 142.32 126.56Q140.69 126.64 140.69 126.98V127.06Q140.96 127.09 140.96 127.25V127.94Q141.42 128.91 141.71 128.91Q141.98 128.91 142.32 129.25H142.46Q142.97 129.25 144.11 128.22H144.17V128.16L144.05 127.94V127.67Q144.51 127.06 144.66 127.06Q145.34 127.39 145.34 127.54V127.6Q145.34 128.08 145.01 128.08V128.16Q145.01 129.69 142.46 130.0H141.92Q140.13 130.0 139.79 128.49Q139.38 128.11 139.38 127.6Q139.38 127.45 139.46 127.33Q139.38 127.21 139.38 126.98Q139.38 126.69 139.52 126.37Q139.38 126.14 139.38 125.95V125.89L139.52 125.68Q139.46 125.32 139.46 125.06Q140.72 123.43 141.51 123.43ZM140.96 125.47V125.75Q141.02 125.95 141.38 125.95H142.32L142.82 125.83L143.49 125.89Q143.51 125.75 143.63 125.75Q143.22 125.16 143.09 124.53Q142.31 124.11 142.05 124.11Q141.09 124.11 141.09 125.14Q140.97 125.14 140.96 125.47Z M155.69 119.74H155.73Q156.18 119.74 156.48 120.11V120.14Q156.27 120.95 156.27 121.6Q156.3 122.39 156.35 122.39L156.17 122.83Q156.3 123.08 156.38 123.43Q156.23 123.82 156.23 123.88Q156.3 124.03 156.3 124.09Q156.23 124.97 156.23 125.28Q156.3 125.38 156.3 125.48V125.71Q156.23 125.95 156.23 125.98Q156.3 126.1 156.3 126.2Q156.3 126.3 156.14 126.67Q156.3 126.95 156.3 127.0Q156.23 127.22 156.23 127.28Q156.27 127.54 156.27 127.57Q156.2 127.72 156.2 127.8Q156.2 128.11 156.41 128.44Q156.38 128.68 156.38 128.83V128.98Q156.39 129.06 156.45 129.06Q156.77 129.01 156.81 129.01Q157.16 129.01 157.28 129.29Q157.19 130.01 156.71 130.01Q156.59 129.94 156.48 129.94H156.14Q155.52 129.87 155.45 129.87H155.16Q154.88 129.87 154.88 129.59V129.37Q154.8 129.37 154.8 129.32Q154.13 129.59 153.62 129.94Q153.42 129.94 153.21 129.97Q153.12 129.97 152.64 129.76Q152.52 129.84 152.43 129.84Q151.7 129.62 151.43 129.25Q151.41 129.21 150.89 128.98Q150.89 128.88 150.35 127.93Q150.35 127.77 150.24 127.31Q150.24 126.85 150.63 125.33Q150.86 125.16 151.38 124.34Q151.65 124.34 152.22 123.83L152.4 123.88H152.49L152.69 123.83Q152.69 123.88 152.72 123.88Q152.72 123.76 153.18 123.76H153.33Q154.52 124.06 154.52 124.27Q154.62 124.36 154.8 124.42L154.85 124.27Q154.85 124.17 154.73 124.03V123.83Q154.73 123.81 154.8 123.55V123.39L154.73 123.27V123.01Q154.73 122.86 154.8 122.55Q154.8 122.29 154.73 121.75Q154.8 121.59 154.8 121.44Q154.73 121.44 154.73 121.36V121.0Q154.68 121.0 154.37 121.03Q154.34 121.03 154.16 121.0Q153.78 121.18 153.68 121.18H153.54Q153.32 121.18 153.21 120.95L153.26 120.72L153.21 120.46Q153.21 120.07 153.51 120.07Q153.53 120.07 153.66 120.04Q153.9 120.07 154.08 120.07Q155.33 119.74 155.69 119.74ZM152.22 124.94Q152.25 125.16 152.25 125.28Q152.21 125.28 152.0 125.53Q152.03 125.71 152.03 125.74Q152.0 126.04 151.85 126.39Q152.0 126.64 152.0 126.75Q151.92 126.86 151.92 126.97L152.03 127.42L152.0 127.64V127.81Q152.15 128.02 152.18 128.5Q152.46 128.72 152.46 128.83Q152.46 129.32 153.05 129.32Q153.56 129.32 153.93 128.98Q154.22 128.98 154.52 128.53Q154.74 128.53 154.88 128.22V128.03L154.8 127.93V126.85Q154.92 126.7 154.92 126.56L154.88 126.33L154.97 126.13Q154.77 125.98 154.77 125.33Q154.49 124.69 153.75 124.38H153.66Q152.3 124.5 152.3 124.73Q152.22 124.89 152.22 124.94Z M161.03 123.5H161.22Q162.66 123.5 163.29 125.55Q163.38 126.06 163.49 126.36Q163.43 126.7 163.43 126.73Q163.43 126.91 163.55 127.22Q163.52 127.84 163.19 128.25Q163.19 128.75 162.87 129.01Q162.87 129.73 160.73 130.06H160.67Q158.46 130.06 157.58 127.48L157.71 127.22Q157.64 126.55 157.64 126.03Q157.83 125.29 158.67 124.28Q159.56 123.61 161.03 123.5ZM159.0 125.44 158.99 125.45H158.96Q159.09 125.45 159.21 125.69V125.78Q159.21 126.01 159.03 126.22Q159.2 126.44 159.29 127.3L159.21 127.66Q159.69 129.18 160.29 129.18H160.67Q161.49 129.18 161.69 128.71Q162.12 128.31 162.12 126.28Q162.12 126.16 161.97 125.33H162.0Q161.79 125.08 161.75 124.61Q161.01 124.19 160.79 124.19H160.59Q159.75 124.19 159.14 125.39Z M166.49 123.43 167.1 123.49Q167.16 123.49 167.51 123.43Q168.5 123.43 169.76 124.66Q170.0 124.66 170.45 126.23Q170.3 126.85 170.12 126.85Q167.6 126.56 167.3 126.56Q165.66 126.64 165.66 126.98V127.06Q165.93 127.09 165.93 127.25V127.94Q166.4 128.91 166.68 128.91Q166.95 128.91 167.3 129.25H167.43Q167.94 129.25 169.08 128.22H169.14V128.16L169.02 127.94V127.67Q169.49 127.06 169.64 127.06Q170.31 127.39 170.31 127.54V127.6Q170.31 128.08 169.98 128.08V128.16Q169.98 129.69 167.43 130.0H166.89Q165.11 130.0 164.76 128.49Q164.36 128.11 164.36 127.6Q164.36 127.45 164.43 127.33Q164.36 127.21 164.36 126.98Q164.36 126.69 164.49 126.37Q164.36 126.14 164.36 125.95V125.89L164.49 125.68Q164.43 125.32 164.43 125.06Q165.69 123.43 166.49 123.43ZM165.93 125.47V125.75Q165.99 125.95 166.35 125.95H167.3L167.79 125.83L168.47 125.89Q168.48 125.75 168.6 125.75Q168.2 125.16 168.06 124.53Q167.28 124.11 167.03 124.11Q166.07 124.11 166.07 125.14Q165.95 125.14 165.93 125.47Z M172.82 123.31H173.52Q174.23 123.31 174.48 123.59Q174.57 123.59 175.17 123.4H175.34Q175.67 123.58 175.67 124.11Q175.5 125.55 175.19 125.55H174.98Q174.87 125.55 174.39 124.56Q174.27 124.38 173.82 124.28H173.45Q173.31 124.06 173.24 124.06Q173.13 124.06 172.88 124.39Q172.44 124.39 172.32 125.12Q172.29 125.12 172.29 125.11V125.19Q172.67 125.68 173.58 125.68Q173.58 125.72 173.81 125.77Q173.9 125.72 173.97 125.72Q174.42 125.88 174.5 125.88L174.74 125.83Q175.04 125.83 175.5 126.46Q176.1 126.56 176.1 127.08Q176.15 127.12 176.15 127.48Q176.15 127.58 176.15 127.58L176.25 127.81Q176.25 128.22 176.19 128.22L176.21 128.25V128.31Q175.92 129.53 175.35 129.53Q175.01 130.06 173.82 130.06Q172.92 129.94 172.58 129.62Q172.46 129.62 172.31 129.53Q171.92 129.76 171.78 129.76Q171.29 129.7 171.29 129.41L171.35 129.07L171.27 128.53Q171.39 128.53 171.39 128.49V127.75Q171.62 127.42 171.83 127.42Q172.26 127.42 172.5 128.49Q172.58 128.49 173.03 129.01Q173.33 129.01 173.58 129.19Q173.72 129.12 173.87 129.12H174.02Q174.15 129.12 174.21 129.16Q174.98 129.0 174.98 128.63L175.07 127.73Q175.05 127.38 174.11 127.25L173.52 127.3Q171.87 126.91 171.87 126.55Q171.35 126.33 171.35 125.8Q171.3 125.8 171.24 125.56Q171.24 124.44 172.04 123.66Q172.53 123.31 172.82 123.31Z M183.56 119.8H183.77Q184.08 119.8 184.17 120.01V120.33L184.05 122.97Q184.1 123.16 184.13 124.48L184.05 124.81Q184.1 125.45 184.22 125.64Q184.22 125.72 184.17 126.07L184.22 126.73Q184.13 127.0 184.13 127.03Q184.13 127.11 184.26 127.44Q184.17 128.16 184.01 128.57Q184.05 128.83 184.22 128.83Q184.68 128.74 184.88 128.74H185.0Q185.28 128.94 185.28 129.19Q185.19 129.9 184.88 129.9Q184.38 129.97 184.34 129.97Q183.92 129.97 183.53 129.84Q183.14 129.72 182.33 129.81H182.01Q181.76 129.67 181.76 129.31Q181.97 129.1 182.12 129.1H182.33Q182.51 129.1 182.78 129.15Q183.03 129.06 183.03 128.88Q182.87 128.5 182.87 128.34V128.17Q182.87 127.09 182.7 125.55L182.73 125.38Q182.73 125.32 182.7 124.72Q182.7 124.58 182.78 123.86Q182.58 122.74 182.58 122.56Q182.63 121.83 182.7 121.57L182.67 121.41Q182.73 121.27 182.73 121.15V120.94Q182.64 120.78 182.46 120.72L182.06 120.75Q181.86 120.67 181.85 120.58V120.42Q181.85 120.11 182.9 119.97Q182.9 119.91 183.56 119.8Z M188.1 119.84Q189.14 119.84 189.3 120.84Q189.3 121.3 188.52 121.86Q187.31 121.57 187.31 121.34Q187.14 121.03 187.14 120.14L187.41 119.91Q187.44 119.91 187.65 119.97ZM188.4 123.56H188.57Q189.05 123.56 189.2 124.5V124.56L188.97 124.78Q189.03 124.89 189.09 125.35Q188.97 125.53 188.97 125.69Q189.09 126.0 189.09 126.04L188.91 126.39Q188.97 126.97 188.97 127.3V127.47L188.91 127.81Q188.97 127.9 188.97 128.09V128.22L188.79 128.78V128.84Q188.85 129.03 189.15 129.03H189.2Q189.23 128.78 189.36 128.78H189.54Q189.65 128.78 189.83 129.72Q189.83 129.81 189.6 129.96Q188.93 129.96 188.22 129.94L187.65 130.0L187.35 129.82Q186.81 130.0 186.66 130.0H186.57Q186.47 130.0 186.33 129.37Q186.5 129.16 187.41 129.03H187.53V128.78Q187.53 128.66 187.59 128.56L187.47 128.22Q187.53 127.9 187.53 127.7V127.58Q187.41 126.76 187.41 126.73Q187.53 126.28 187.71 124.94Q187.71 124.9 187.47 124.61V124.56L187.65 124.31L187.35 124.25H186.66Q186.38 124.25 186.33 124.09Q186.33 123.75 186.66 123.62Q187.37 123.75 188.22 123.75Q188.22 123.66 188.4 123.56Z M194.51 118.39Q194.82 118.39 194.82 118.51L194.94 118.44H195.14Q195.57 118.44 195.95 119.45V119.69Q195.69 120.52 195.45 120.52Q195.23 120.52 194.88 120.58Q194.4 120.06 194.19 120.06H194.07Q194.07 120.25 193.61 120.56Q193.61 120.7 193.67 120.82L193.58 122.47Q193.58 122.58 193.82 123.16Q194.36 122.92 194.82 122.83Q194.85 122.59 195.0 122.59H195.06Q195.2 122.62 195.2 122.72V122.91Q195.2 123.04 195.14 123.16Q195.26 123.37 195.26 123.52Q195.26 124.0 194.76 124.42Q194.15 124.21 194.07 124.09Q193.68 124.24 193.68 124.34Q193.74 124.6 193.82 124.6Q193.74 125.16 193.74 125.23Q193.74 125.59 193.82 127.3L193.74 127.75Q193.88 128.02 194.01 128.68V128.88Q194.12 128.94 194.25 128.94H194.37Q194.57 128.94 194.88 128.74Q195.17 128.74 195.26 129.43Q195.15 129.94 195.0 129.94H194.88Q194.6 129.94 192.99 129.75Q192.14 130.0 191.93 130.0Q191.0 130.0 191.0 129.43V129.37Q191.0 128.94 191.43 128.94Q191.49 128.94 191.93 129.07H192.18Q192.18 128.89 192.32 128.68Q192.18 128.44 192.18 128.19L192.26 128.05L192.12 127.67L192.18 127.3L191.99 126.98V126.86L192.18 126.61V126.55Q191.93 126.55 191.93 126.36V126.23L192.06 126.04V125.86L191.87 125.23Q192.18 124.61 192.18 124.28L191.69 124.09L191.3 124.28Q191.0 124.28 190.8 123.97V123.59Q190.8 123.08 191.3 123.08Q191.96 123.16 192.06 123.16Q192.32 122.91 192.32 122.78Q192.09 122.61 191.99 121.59Q192.32 120.5 192.42 119.69Q193.41 118.77 193.62 118.77Q194.15 118.42 194.51 118.39Z M198.51 123.43 199.13 123.49Q199.19 123.49 199.53 123.43Q200.52 123.43 201.78 124.66Q202.02 124.66 202.47 126.23Q202.32 126.85 202.14 126.85Q199.62 126.56 199.32 126.56Q197.69 126.64 197.69 126.98V127.06Q197.96 127.09 197.96 127.25V127.94Q198.42 128.91 198.71 128.91Q198.98 128.91 199.32 129.25H199.46Q199.97 129.25 201.11 128.22H201.17V128.16L201.05 127.94V127.67Q201.51 127.06 201.66 127.06Q202.34 127.39 202.34 127.54V127.6Q202.34 128.08 202.01 128.08V128.16Q202.01 129.69 199.46 130.0H198.92Q197.13 130.0 196.79 128.49Q196.38 128.11 196.38 127.6Q196.38 127.45 196.46 127.33Q196.38 127.21 196.38 126.98Q196.38 126.69 196.52 126.37Q196.38 126.14 196.38 125.95V125.89L196.52 125.68Q196.46 125.32 196.46 125.06Q197.72 123.43 198.51 123.43ZM197.96 125.47V125.75Q198.02 125.95 198.38 125.95H199.32L199.82 125.83L200.49 125.89Q200.51 125.75 200.63 125.75Q200.22 125.16 200.09 124.53Q199.31 124.11 199.05 124.11Q198.09 124.11 198.09 125.14Q197.97 125.14 197.96 125.47Z M209.07 123.82Q209.22 123.82 209.39 124.12Q209.33 124.21 209.33 124.33Q209.39 124.44 209.39 124.5H209.43Q209.7 124.12 210.47 123.82H210.53Q210.66 123.82 210.84 123.92Q210.87 123.92 211.04 123.88Q211.22 123.98 211.35 123.98Q211.77 123.88 211.88 123.88Q212.15 123.88 212.72 124.6Q212.96 124.6 213.06 124.96L213.02 125.28L213.12 126.27Q213.06 126.75 213.06 127.19V127.72L213.02 128.02L213.06 128.12Q213.02 128.49 213.02 128.69V128.86Q213.02 129.03 213.23 129.03Q213.72 128.86 213.75 128.86Q214.13 128.86 214.26 129.22Q214.11 129.9 213.5 129.9Q213.5 130.0 213.18 130.0Q212.81 129.9 212.61 129.9L211.98 129.94Q211.55 129.84 211.47 129.84Q211.1 129.9 210.9 129.9L210.78 129.73V129.49Q210.78 129.4 210.95 129.32H211.01Q211.11 129.32 211.2 129.37Q211.49 129.29 211.82 128.86H211.88Q211.77 128.68 211.77 128.54L211.82 128.35Q211.71 128.17 211.71 128.02V127.92Q211.71 127.86 211.82 127.34V127.3Q211.82 127.24 211.71 126.88V126.78Q211.71 126.73 211.77 126.73Q211.67 126.55 211.67 126.27L211.71 126.16Q211.58 125.94 211.52 125.32Q211.47 125.32 211.41 125.17V124.9L210.95 124.6L210.68 124.66L210.57 124.6Q209.7 124.92 209.7 125.42Q209.7 125.53 209.39 125.94Q209.22 126.4 209.22 126.56V127.05Q209.22 127.17 209.16 127.24Q209.28 127.47 209.28 127.56Q209.22 128.02 209.22 128.12Q209.33 128.97 209.33 129.03Q209.28 129.03 209.28 129.07L209.7 129.43H209.79L210.17 129.32Q210.38 129.4 210.47 129.59V129.69Q210.47 129.76 210.33 129.84H209.9Q209.76 129.84 209.43 129.73Q209.28 129.84 208.5 130.0H208.25Q207.35 129.97 207.35 129.69Q207.35 129.37 208.02 129.22L208.35 128.92Q208.32 128.75 208.08 128.49Q208.1 128.12 208.19 128.12L208.14 127.92Q208.14 127.81 208.19 127.34Q208.08 127.03 208.08 126.94Q208.17 126.83 208.25 125.91H208.29Q208.25 125.72 208.02 125.32L208.08 125.06Q208.08 124.77 207.21 124.69Q206.94 124.51 206.94 124.28L207.41 124.03Q207.69 124.08 207.87 124.08Q207.98 123.88 208.19 123.88L208.4 123.92Q208.86 123.82 209.07 123.82Z M216.72 123.43 217.34 123.49Q217.4 123.49 217.74 123.43Q218.73 123.43 219.99 124.66Q220.23 124.66 220.68 126.23Q220.53 126.85 220.35 126.85Q217.83 126.56 217.53 126.56Q215.9 126.64 215.9 126.98V127.06Q216.17 127.09 216.17 127.25V127.94Q216.63 128.91 216.92 128.91Q217.19 128.91 217.53 129.25H217.67Q218.18 129.25 219.32 128.22H219.38V128.16L219.26 127.94V127.67Q219.72 127.06 219.87 127.06Q220.55 127.39 220.55 127.54V127.6Q220.55 128.08 220.22 128.08V128.16Q220.22 129.69 217.67 130.0H217.13Q215.34 130.0 215.0 128.49Q214.59 128.11 214.59 127.6Q214.59 127.45 214.67 127.33Q214.59 127.21 214.59 126.98Q214.59 126.69 214.73 126.37Q214.59 126.14 214.59 125.95V125.89L214.73 125.68Q214.67 125.32 214.67 125.06Q215.93 123.43 216.72 123.43ZM216.17 125.47V125.75Q216.23 125.95 216.59 125.95H217.53L218.03 125.83L218.7 125.89Q218.72 125.75 218.84 125.75Q218.43 125.16 218.3 124.53Q217.52 124.11 217.26 124.11Q216.3 124.11 216.3 125.14Q216.18 125.14 216.17 125.47Z M223.34 123.43 223.95 123.49Q224.01 123.49 224.36 123.43Q225.35 123.43 226.61 124.66Q226.85 124.66 227.3 126.23Q227.15 126.85 226.97 126.85Q224.45 126.56 224.15 126.56Q222.51 126.64 222.51 126.98V127.06Q222.78 127.09 222.78 127.25V127.94Q223.25 128.91 223.53 128.91Q223.8 128.91 224.15 129.25H224.28Q224.79 129.25 225.93 128.22H225.99V128.16L225.87 127.94V127.67Q226.34 127.06 226.49 127.06Q227.16 127.39 227.16 127.54V127.6Q227.16 128.08 226.83 128.08V128.16Q226.83 129.69 224.28 130.0H223.74Q221.96 130.0 221.61 128.49Q221.21 128.11 221.21 127.6Q221.21 127.45 221.28 127.33Q221.21 127.21 221.21 126.98Q221.21 126.69 221.34 126.37Q221.21 126.14 221.21 125.95V125.89L221.34 125.68Q221.28 125.32 221.28 125.06Q222.54 123.43 223.34 123.43ZM222.78 125.47V125.75Q222.84 125.95 223.2 125.95H224.15L224.64 125.83L225.32 125.89Q225.33 125.75 225.45 125.75Q225.05 125.16 224.91 124.53Q224.13 124.11 223.88 124.11Q222.92 124.11 222.92 125.14Q222.8 125.14 222.78 125.47Z M233.31 119.74H233.36Q233.81 119.74 234.11 120.11V120.14Q233.9 120.95 233.9 121.6Q233.93 122.39 233.97 122.39L233.79 122.83Q233.93 123.08 234.0 123.43Q233.85 123.82 233.85 123.88Q233.93 124.03 233.93 124.09Q233.85 124.97 233.85 125.28Q233.93 125.38 233.93 125.48V125.71Q233.85 125.95 233.85 125.98Q233.93 126.1 233.93 126.2Q233.93 126.3 233.76 126.67Q233.93 126.95 233.93 127.0Q233.85 127.22 233.85 127.28Q233.9 127.54 233.9 127.57Q233.82 127.72 233.82 127.8Q233.82 128.11 234.03 128.44Q234.0 128.68 234.0 128.83V128.98Q234.02 129.06 234.08 129.06Q234.39 129.01 234.44 129.01Q234.78 129.01 234.9 129.29Q234.81 130.01 234.33 130.01Q234.21 129.94 234.11 129.94H233.76Q233.15 129.87 233.07 129.87H232.79Q232.5 129.87 232.5 129.59V129.37Q232.43 129.37 232.43 129.32Q231.75 129.59 231.24 129.94Q231.05 129.94 230.84 129.97Q230.75 129.97 230.27 129.76Q230.15 129.84 230.06 129.84Q229.32 129.62 229.05 129.25Q229.04 129.21 228.51 128.98Q228.51 128.88 227.97 127.93Q227.97 127.77 227.87 127.31Q227.87 126.85 228.26 125.33Q228.48 125.16 229.01 124.34Q229.28 124.34 229.85 123.83L230.03 123.88H230.12L230.31 123.83Q230.31 123.88 230.34 123.88Q230.34 123.76 230.81 123.76H230.96Q232.14 124.06 232.14 124.27Q232.25 124.36 232.43 124.42L232.47 124.27Q232.47 124.17 232.35 124.03V123.83Q232.35 123.81 232.43 123.55V123.39L232.35 123.27V123.01Q232.35 122.86 232.43 122.55Q232.43 122.29 232.35 121.75Q232.43 121.59 232.43 121.44Q232.35 121.44 232.35 121.36V121.0Q232.31 121.0 231.99 121.03Q231.96 121.03 231.78 121.0Q231.41 121.18 231.3 121.18H231.17Q230.94 121.18 230.84 120.95L230.88 120.72L230.84 120.46Q230.84 120.07 231.14 120.07Q231.15 120.07 231.29 120.04Q231.53 120.07 231.71 120.07Q232.95 119.74 233.31 119.74ZM229.85 124.94Q229.88 125.16 229.88 125.28Q229.83 125.28 229.62 125.53Q229.65 125.71 229.65 125.74Q229.62 126.04 229.47 126.39Q229.62 126.64 229.62 126.75Q229.55 126.86 229.55 126.97L229.65 127.42L229.62 127.64V127.81Q229.77 128.02 229.8 128.5Q230.09 128.72 230.09 128.83Q230.09 129.32 230.67 129.32Q231.18 129.32 231.56 128.98Q231.84 128.98 232.14 128.53Q232.37 128.53 232.5 128.22V128.03L232.43 127.93V126.85Q232.55 126.7 232.55 126.56L232.5 126.33L232.59 126.13Q232.4 125.98 232.4 125.33Q232.11 124.69 231.38 124.38H231.29Q229.92 124.5 229.92 124.73Q229.85 124.89 229.85 124.94Z M237.92 128.02Q237.98 128.02 238.24 128.04Q238.5 128.05 238.56 128.06Q238.62 128.08 238.68 128.26Q238.74 128.44 238.97 128.68Q239.19 128.92 239.14 128.96Q239.09 129.01 239.09 129.16Q239.09 129.31 238.94 129.67Q238.8 129.97 238.7 130.04Q238.59 130.1 238.1 130.13Q237.54 130.18 237.33 130.08Q237.12 129.99 236.81 129.58Q236.69 129.38 236.72 129.18Q236.78 128.72 236.96 128.54Q237.09 128.44 237.24 128.27Q237.39 128.09 237.62 128.06Q237.84 128.03 237.92 128.02ZM237.69 119.16Q238.04 119.08 238.38 119.17Q238.65 119.23 238.8 119.23Q239.04 119.23 239.4 119.34Q239.75 119.45 239.88 119.58Q240.02 119.71 240.15 119.73Q240.27 119.75 240.27 119.79Q240.27 119.83 240.54 120.13Q240.93 120.53 240.99 120.86Q241.02 121.03 241.11 121.23Q241.2 121.44 241.2 121.97Q241.2 122.58 241.15 122.9Q241.1 123.22 240.92 123.52Q240.72 123.88 240.63 123.97Q240.54 124.06 240.54 124.12Q240.54 124.18 240.37 124.32Q240.2 124.47 240.12 124.47Q240.02 124.47 239.91 124.6Q239.79 124.73 239.46 124.84Q239.12 124.94 239.01 125.06Q238.89 125.17 238.73 125.23Q238.56 125.29 238.52 125.4Q238.47 125.52 238.5 125.92Q238.53 126.25 238.52 126.35Q238.5 126.44 238.4 126.62Q238.26 126.88 238.14 126.95Q238.02 127.03 237.83 126.97Q237.39 126.82 237.39 126.07Q237.36 124.18 237.48 123.94Q237.54 123.82 237.7 123.75Q237.86 123.69 238.5 123.52Q238.79 123.43 239.05 123.24Q239.31 123.06 239.45 122.81Q239.55 122.61 239.64 122.55Q239.9 122.35 239.9 121.57Q239.9 120.94 239.61 120.85Q239.46 120.81 239.46 120.76Q239.46 120.72 239.27 120.56Q239.07 120.42 238.83 120.42Q238.68 120.42 238.59 120.46Q238.49 120.5 238.22 120.72Q237.83 121.02 237.56 121.05Q237.29 121.09 236.96 120.95Q236.61 120.82 236.52 120.72Q236.42 120.62 236.39 120.36Q236.36 120.16 236.38 120.08Q236.4 120.0 236.52 119.81Q236.7 119.58 236.79 119.5Q237.08 119.32 237.69 119.16Z M76.01 152.66H76.19L76.38 152.77H77.18Q77.81 153.0 77.91 153.16Q78.57 153.16 78.84 153.58Q78.84 153.87 79.58 154.13Q79.86 154.44 80.33 155.06Q80.54 155.34 80.75 156.24Q80.87 156.53 80.99 156.53V157.41L81.11 157.59V158.14L81.24 158.32V158.75Q80.94 159.66 80.88 159.73Q79.92 161.65 79.32 161.65L78.59 162.19L78.47 162.26H78.17Q78.17 162.49 77.12 162.64Q77.12 162.69 77.06 162.69H76.44Q76.44 163.0 76.32 163.0H75.71Q75.45 162.87 75.45 162.69H75.02L73.73 161.89Q73.04 161.43 72.81 160.96L72.2 159.93V159.25L72.08 159.06V158.75Q71.88 158.75 71.88 158.63V157.33Q71.88 157.21 72.08 157.21V156.29Q72.18 156.21 72.24 155.49Q72.5 155.49 72.5 155.31Q73.05 154.79 73.05 154.39L73.43 153.78Q74.09 153.64 74.28 153.32H74.6Q74.6 153.09 74.7 153.09H75.02Q75.02 152.88 75.39 152.84Q75.93 152.74 76.01 152.66ZM76.44 153.64H75.39Q74.96 153.84 74.96 153.94H74.6Q74.6 154.06 74.34 154.45Q74.34 154.75 74.15 154.75V155.23Q73.94 155.59 73.85 156.04H73.73V156.35H73.85V156.47H73.73V158.5L73.61 158.69L73.73 158.88V159.61Q74.15 159.76 74.15 159.87V160.28Q74.36 160.28 74.6 160.74V161.03Q75.02 161.09 75.02 161.46H75.15Q75.15 161.28 75.27 161.28Q75.32 161.4 75.32 161.46H75.89L76.62 161.71H76.68L77.61 161.41Q77.85 161.25 77.85 161.09Q78.18 161.09 78.71 160.28Q78.78 159.34 78.96 159.31H79.02V158.44L79.14 158.26V157.09L79.02 156.91V156.72L79.14 156.53L79.02 156.35V156.04Q78.86 156.04 78.71 155.68V155.62L78.84 155.43V155.12Q78.84 155.05 78.41 154.81Q78.18 154.13 77.85 154.13Q77.69 153.64 77.48 153.64Q77.42 153.64 77.42 153.7Q76.79 153.62 76.68 153.52H76.62Z M83.78 156.82Q83.93 156.82 84.09 157.12Q84.03 157.21 84.03 157.33Q84.09 157.44 84.09 157.5H84.14Q84.41 157.12 85.17 156.82H85.23Q85.37 156.82 85.55 156.93Q85.58 156.93 85.74 156.88Q85.92 156.99 86.06 156.99Q86.48 156.88 86.58 156.88Q86.85 156.88 87.42 157.6Q87.66 157.6 87.77 157.96L87.72 158.28L87.83 159.26Q87.77 159.75 87.77 160.19V160.72L87.72 161.02L87.77 161.12Q87.72 161.49 87.72 161.69V161.86Q87.72 162.03 87.93 162.03Q88.43 161.86 88.46 161.86Q88.83 161.86 88.97 162.22Q88.82 162.9 88.2 162.9Q88.2 163.0 87.89 163.0Q87.51 162.9 87.32 162.9L86.69 162.94Q86.25 162.84 86.18 162.84Q85.8 162.9 85.61 162.9L85.49 162.73V162.49Q85.49 162.4 85.65 162.32H85.71Q85.82 162.32 85.91 162.37Q86.19 162.29 86.52 161.86H86.58Q86.48 161.68 86.48 161.54L86.52 161.35Q86.42 161.17 86.42 161.02V160.91Q86.42 160.85 86.52 160.34V160.3Q86.52 160.24 86.42 159.88V159.78Q86.42 159.73 86.48 159.73Q86.37 159.55 86.37 159.26L86.42 159.16Q86.28 158.94 86.22 158.32Q86.18 158.32 86.12 158.17V157.9L85.65 157.6L85.38 157.66L85.28 157.6Q84.41 157.91 84.41 158.43Q84.41 158.53 84.09 158.94Q83.93 159.4 83.93 159.56V160.04Q83.93 160.16 83.87 160.24Q83.99 160.47 83.99 160.56Q83.93 161.02 83.93 161.12Q84.03 161.97 84.03 162.03Q83.99 162.03 83.99 162.07L84.41 162.43H84.5L84.87 162.32Q85.08 162.4 85.17 162.59V162.69Q85.17 162.76 85.04 162.84H84.6Q84.47 162.84 84.14 162.73Q83.99 162.84 83.21 163.0H82.95Q82.05 162.97 82.05 162.69Q82.05 162.37 82.73 162.22L83.06 161.92Q83.03 161.75 82.79 161.49Q82.8 161.12 82.89 161.12L82.85 160.91Q82.85 160.81 82.89 160.34Q82.79 160.03 82.79 159.94Q82.88 159.84 82.95 158.91H83.0Q82.95 158.72 82.73 158.32L82.79 158.06Q82.79 157.76 81.92 157.69Q81.65 157.51 81.65 157.28L82.11 157.03Q82.4 157.07 82.58 157.07Q82.68 156.88 82.89 156.88L83.1 156.93Q83.57 156.82 83.78 156.82Z M91.43 156.43 92.04 156.49Q92.1 156.49 92.45 156.43Q93.44 156.43 94.7 157.66Q94.94 157.66 95.39 159.24Q95.24 159.85 95.06 159.85Q92.54 159.56 92.24 159.56Q90.6 159.64 90.6 159.99V160.06Q90.87 160.09 90.87 160.25V160.94Q91.34 161.91 91.62 161.91Q91.89 161.91 92.24 162.25H92.37Q92.88 162.25 94.02 161.22H94.08V161.16L93.96 160.94V160.68Q94.43 160.06 94.58 160.06Q95.25 160.39 95.25 160.54V160.6Q95.25 161.08 94.92 161.08V161.16Q94.92 162.69 92.37 163.0H91.83Q90.05 163.0 89.7 161.49Q89.3 161.11 89.3 160.6Q89.3 160.45 89.37 160.33Q89.3 160.21 89.3 159.99Q89.3 159.69 89.43 159.37Q89.3 159.15 89.3 158.95V158.89L89.43 158.68Q89.37 158.32 89.37 158.06Q90.63 156.43 91.43 156.43ZM90.87 158.47V158.75Q90.93 158.95 91.29 158.95H92.24L92.73 158.83L93.41 158.89Q93.42 158.75 93.54 158.75Q93.14 158.16 93.0 157.53Q92.22 157.1 91.97 157.1Q91.01 157.1 91.01 158.14Q90.89 158.14 90.87 158.47Z M104.06 156.76Q105.33 157.21 105.33 157.53H105.45Q106.41 156.76 107.04 156.76Q108.98 156.76 108.98 157.87Q109.04 157.87 109.14 158.88Q109.04 158.88 109.04 159.04Q109.04 159.37 109.14 159.93Q109.07 159.93 108.86 160.27Q109.01 160.27 109.14 161.5Q109.04 161.51 109.04 161.62V161.68H109.08Q109.61 161.62 109.73 161.62Q109.77 161.78 110.03 161.92Q109.89 162.79 109.5 162.79Q109.07 162.7 108.86 162.56H108.5Q108.11 162.56 107.81 162.62Q107.49 162.56 107.1 162.56H106.92Q106.68 162.49 106.68 162.04V161.98Q106.74 161.84 107.51 161.56Q107.51 161.34 107.63 160.69Q107.63 160.44 107.57 160.04L107.69 159.34Q107.63 158.49 107.33 157.87Q107.12 157.75 106.86 157.75H106.62Q105.96 158.14 105.63 158.4Q105.63 158.69 105.57 159.28L105.63 159.87Q105.63 159.93 105.57 160.04Q105.63 160.27 105.63 160.45Q105.51 160.82 105.51 160.97Q105.51 161.68 105.93 161.68Q106.46 161.84 106.46 161.98V162.15Q106.23 162.56 106.16 162.56H105.63Q105.57 162.56 105.57 162.5Q105.51 162.5 105.51 162.56Q105.39 162.56 105.39 162.5L104.69 162.56H104.28Q104.1 162.7 103.52 162.85H102.99Q102.74 162.85 102.47 162.5H102.41Q102.2 162.56 102.18 162.56L102.06 162.5Q101.49 162.69 101.3 162.69H101.0Q100.95 162.69 100.53 162.56Q100.47 162.56 100.35 162.62Q100.01 162.47 100.01 162.09Q100.01 161.71 100.71 161.28Q100.71 161.22 100.65 161.22Q100.71 160.63 100.71 160.33Q100.71 160.19 100.65 160.1Q100.71 159.93 100.77 159.93Q100.65 159.38 100.65 158.98Q100.71 158.81 100.77 158.81L100.71 158.57L100.77 158.17Q100.71 157.82 100.13 157.34Q100.13 156.94 100.71 156.94Q100.77 156.94 100.89 157.0L101.24 156.94H101.64Q101.88 156.94 102.29 157.28H102.47Q102.71 157.1 104.06 156.76ZM102.06 159.34Q102.06 159.47 102.12 159.56Q102.05 160.34 102.0 160.45Q102.0 161.41 102.77 162.04Q102.77 162.21 102.87 162.21H103.05Q103.34 161.86 103.64 161.86Q104.34 161.86 104.34 161.22Q104.4 161.22 104.4 161.03V159.04Q104.4 158.05 103.76 157.59H103.41Q102.68 157.84 102.35 158.46Z M112.46 156.43 113.07 156.49Q113.13 156.49 113.48 156.43Q114.47 156.43 115.73 157.66Q115.97 157.66 116.42 159.24Q116.27 159.85 116.09 159.85Q113.57 159.56 113.27 159.56Q111.63 159.64 111.63 159.99V160.06Q111.9 160.09 111.9 160.25V160.94Q112.37 161.91 112.65 161.91Q112.92 161.91 113.27 162.25H113.4Q113.91 162.25 115.05 161.22H115.11V161.16L114.99 160.94V160.68Q115.46 160.06 115.61 160.06Q116.28 160.39 116.28 160.54V160.6Q116.28 161.08 115.95 161.08V161.16Q115.95 162.69 113.4 163.0H112.86Q111.08 163.0 110.73 161.49Q110.33 161.11 110.33 160.6Q110.33 160.45 110.4 160.33Q110.33 160.21 110.33 159.99Q110.33 159.69 110.46 159.37Q110.33 159.15 110.33 158.95V158.89L110.46 158.68Q110.4 158.32 110.4 158.06Q111.66 156.43 112.46 156.43ZM111.9 158.47V158.75Q111.96 158.95 112.32 158.95H113.27L113.76 158.83L114.44 158.89Q114.45 158.75 114.57 158.75Q114.17 158.16 114.03 157.53Q113.25 157.1 113.0 157.1Q112.04 157.1 112.04 158.14Q111.92 158.14 111.9 158.47Z M119.12 156.43H119.3Q119.48 156.43 119.6 156.44Q119.79 156.43 119.96 156.43H120.06Q120.23 156.43 120.48 156.7Q121.32 156.7 121.67 157.82V157.93Q121.67 157.96 121.59 158.22V158.25Q121.59 158.54 121.64 158.88L121.56 159.25L121.64 160.03Q121.56 160.63 121.56 160.76Q121.59 160.94 121.59 161.03Q121.53 161.19 121.53 161.29L121.59 161.32Q121.8 161.03 121.89 161.03Q121.94 161.0 122.06 161.0H122.19Q122.52 161.17 122.52 161.77Q122.52 162.44 121.85 162.85Q121.58 162.85 121.26 163.0Q120.17 162.66 120.17 162.19H120.11Q119.9 162.38 119.51 162.58Q119.51 162.7 119.12 162.75Q119.03 162.85 118.88 162.85H118.41Q118.17 162.93 118.14 162.93Q117.63 162.93 117.3 162.37Q117.3 162.34 116.96 162.12Q116.93 161.75 116.78 161.4Q117.06 159.96 117.41 159.96Q117.54 159.7 117.96 159.5Q117.96 159.41 118.52 159.22Q118.52 159.19 118.56 159.19L118.77 159.22Q118.97 159.09 119.07 159.09H119.15Q119.3 159.09 119.51 159.25H119.64Q119.81 159.16 120.03 158.84Q120.2 158.77 120.21 158.69V158.56Q120.06 158.41 120.03 158.03Q119.94 157.96 119.78 157.54Q119.58 157.36 119.43 157.36L118.92 157.51L118.74 157.48Q118.67 157.51 118.62 157.51V157.54Q118.77 157.91 118.77 158.22V158.32Q118.77 158.57 118.11 159.12Q117.75 159.01 117.15 158.32V158.17L117.23 158.06V157.71Q117.32 157.53 117.75 157.15Q117.92 157.01 118.04 156.59H118.11Q118.55 156.59 119.12 156.43ZM118.11 160.9Q118.34 161.71 118.59 161.71L118.85 161.77H119.25L119.51 161.63H119.75Q120.03 161.63 120.03 161.37Q120.03 161.28 120.0 161.22Q120.03 160.56 120.14 160.13Q120.02 159.75 119.96 159.67L118.77 159.93Q118.77 159.99 118.32 160.19Q118.32 160.28 118.14 160.63Q118.11 160.81 118.11 160.9Z M125.15 152.8H125.36Q125.67 152.8 125.76 153.01V153.32L125.64 155.97Q125.69 156.16 125.72 157.48L125.64 157.81Q125.69 158.46 125.81 158.63Q125.81 158.72 125.76 159.07L125.81 159.73Q125.72 160.0 125.72 160.03Q125.72 160.1 125.85 160.44Q125.76 161.16 125.6 161.57Q125.64 161.83 125.81 161.83Q126.27 161.74 126.47 161.74H126.59Q126.87 161.94 126.87 162.19Q126.78 162.9 126.47 162.9Q125.97 162.97 125.93 162.97Q125.51 162.97 125.12 162.84Q124.73 162.72 123.92 162.81H123.6Q123.35 162.67 123.35 162.31Q123.56 162.1 123.71 162.1H123.92Q124.1 162.1 124.37 162.15Q124.62 162.06 124.62 161.88Q124.46 161.5 124.46 161.34V161.17Q124.46 160.09 124.29 158.54L124.32 158.38Q124.32 158.32 124.29 157.72Q124.29 157.59 124.37 156.87Q124.17 155.74 124.17 155.56Q124.22 154.82 124.29 154.57L124.26 154.41Q124.32 154.27 124.32 154.15V153.94Q124.23 153.78 124.05 153.72L123.65 153.75Q123.45 153.67 123.44 153.58V153.41Q123.44 153.12 124.49 152.97Q124.49 152.91 125.15 152.8Z M128.81 160.97Q129.15 160.88 129.49 161.02Q129.83 161.16 130.08 161.46Q130.29 161.74 130.34 161.83Q130.41 161.95 130.47 162.22Q130.53 162.49 130.5 162.56Q130.38 163.0 130.17 163.12Q130.04 163.22 130.04 163.31Q130.04 163.41 129.82 163.62Q129.6 163.82 129.52 164.02Q129.44 164.22 129.25 164.34Q129.06 164.46 128.97 164.59Q128.87 164.84 128.58 164.84Q128.19 164.84 128.09 164.6Q128.01 164.44 128.03 164.37Q128.06 164.31 128.22 164.16Q128.4 163.96 128.4 163.91Q128.4 163.87 128.51 163.66Q128.61 163.45 128.7 163.34Q128.87 163.15 128.63 162.81Q128.36 162.43 128.22 162.35Q128.12 162.29 128.07 162.08Q128.03 161.88 128.07 161.65Q128.1 161.5 128.15 161.43Q128.21 161.37 128.37 161.22Q128.66 161.0 128.81 160.97Z M141.08 152.74H141.12Q141.57 152.74 141.87 153.12V153.15Q141.66 153.96 141.66 154.6Q141.69 155.4 141.74 155.4L141.56 155.83Q141.69 156.09 141.77 156.43Q141.62 156.82 141.62 156.88Q141.69 157.03 141.69 157.09Q141.62 157.97 141.62 158.28Q141.69 158.38 141.69 158.49V158.71Q141.62 158.95 141.62 158.98Q141.69 159.1 141.69 159.21Q141.69 159.29 141.53 159.67Q141.69 159.96 141.69 160.0Q141.62 160.22 141.62 160.28Q141.66 160.54 141.66 160.57Q141.59 160.72 141.59 160.79Q141.59 161.11 141.8 161.44Q141.77 161.68 141.77 161.83V161.98Q141.78 162.06 141.84 162.06Q142.16 162.01 142.2 162.01Q142.55 162.01 142.67 162.29Q142.58 163.01 142.1 163.01Q141.98 162.94 141.87 162.94H141.53Q140.91 162.87 140.84 162.87H140.55Q140.27 162.87 140.27 162.59V162.37Q140.19 162.37 140.19 162.32Q139.52 162.59 139.01 162.94Q138.81 162.94 138.6 162.97Q138.51 162.97 138.03 162.76Q137.91 162.84 137.82 162.84Q137.09 162.62 136.82 162.25Q136.8 162.21 136.28 161.98Q136.28 161.88 135.74 160.93Q135.74 160.76 135.63 160.31Q135.63 159.85 136.02 158.34Q136.25 158.16 136.77 157.34Q137.04 157.34 137.61 156.84L137.79 156.88H137.88L138.08 156.84Q138.08 156.88 138.11 156.88Q138.11 156.76 138.57 156.76H138.72Q139.91 157.06 139.91 157.27Q140.01 157.36 140.19 157.42L140.24 157.27Q140.24 157.16 140.12 157.03V156.84Q140.12 156.81 140.19 156.55V156.38L140.12 156.26V156.01Q140.12 155.86 140.19 155.54Q140.19 155.29 140.12 154.75Q140.19 154.59 140.19 154.44Q140.12 154.44 140.12 154.36V154.0Q140.07 154.0 139.76 154.03Q139.73 154.03 139.55 154.0Q139.17 154.18 139.07 154.18H138.93Q138.71 154.18 138.6 153.96L138.65 153.72L138.6 153.46Q138.6 153.07 138.9 153.07Q138.92 153.07 139.05 153.04Q139.29 153.07 139.47 153.07Q140.72 152.74 141.08 152.74ZM137.61 157.94Q137.64 158.16 137.64 158.28Q137.6 158.28 137.39 158.53Q137.42 158.71 137.42 158.74Q137.39 159.04 137.24 159.38Q137.39 159.64 137.39 159.75Q137.31 159.87 137.31 159.97L137.42 160.42L137.39 160.65V160.81Q137.54 161.02 137.57 161.5Q137.85 161.72 137.85 161.83Q137.85 162.32 138.44 162.32Q138.95 162.32 139.32 161.98Q139.61 161.98 139.91 161.53Q140.13 161.53 140.27 161.22V161.03L140.19 160.93V159.85Q140.31 159.7 140.31 159.56L140.27 159.32L140.36 159.13Q140.16 158.98 140.16 158.34Q139.88 157.69 139.14 157.38H139.05Q137.69 157.5 137.69 157.74Q137.61 157.88 137.61 157.94Z M145.25 156.43 145.86 156.49Q145.92 156.49 146.27 156.43Q147.26 156.43 148.52 157.66Q148.76 157.66 149.21 159.24Q149.06 159.85 148.88 159.85Q146.36 159.56 146.06 159.56Q144.42 159.64 144.42 159.99V160.06Q144.69 160.09 144.69 160.25V160.94Q145.16 161.91 145.44 161.91Q145.71 161.91 146.06 162.25H146.19Q146.7 162.25 147.84 161.22H147.9V161.16L147.78 160.94V160.68Q148.25 160.06 148.4 160.06Q149.07 160.39 149.07 160.54V160.6Q149.07 161.08 148.74 161.08V161.16Q148.74 162.69 146.19 163.0H145.65Q143.87 163.0 143.52 161.49Q143.12 161.11 143.12 160.6Q143.12 160.45 143.19 160.33Q143.12 160.21 143.12 159.99Q143.12 159.69 143.25 159.37Q143.12 159.15 143.12 158.95V158.89L143.25 158.68Q143.19 158.32 143.19 158.06Q144.45 156.43 145.25 156.43ZM144.69 158.47V158.75Q144.75 158.95 145.11 158.95H146.06L146.55 158.83L147.23 158.89Q147.24 158.75 147.36 158.75Q146.96 158.16 146.82 157.53Q146.04 157.1 145.79 157.1Q144.83 157.1 144.83 158.14Q144.71 158.14 144.69 158.47Z M151.58 156.31H152.28Q152.99 156.31 153.24 156.59Q153.33 156.59 153.93 156.4H154.1Q154.43 156.58 154.43 157.1Q154.26 158.54 153.95 158.54H153.74Q153.63 158.54 153.15 157.56Q153.03 157.38 152.58 157.28H152.21Q152.07 157.06 152.0 157.06Q151.89 157.06 151.64 157.39Q151.2 157.39 151.08 158.12Q151.05 158.12 151.05 158.11V158.19Q151.43 158.68 152.34 158.68Q152.34 158.72 152.57 158.77Q152.66 158.72 152.73 158.72Q153.18 158.88 153.26 158.88L153.5 158.83Q153.8 158.83 154.26 159.46Q154.86 159.56 154.86 160.07Q154.91 160.12 154.91 160.48Q154.91 160.59 154.91 160.59L155.01 160.81Q155.01 161.22 154.95 161.22L154.97 161.25V161.31Q154.68 162.53 154.11 162.53Q153.77 163.06 152.58 163.06Q151.68 162.94 151.34 162.62Q151.22 162.62 151.07 162.53Q150.68 162.76 150.54 162.76Q150.05 162.7 150.05 162.41L150.11 162.07L150.03 161.53Q150.15 161.53 150.15 161.49V160.75Q150.38 160.42 150.59 160.42Q151.02 160.42 151.26 161.49Q151.34 161.49 151.79 162.01Q152.09 162.01 152.34 162.19Q152.48 162.12 152.63 162.12H152.78Q152.91 162.12 152.97 162.16Q153.74 162.0 153.74 161.63L153.83 160.74Q153.81 160.38 152.87 160.25L152.28 160.3Q150.63 159.91 150.63 159.55Q150.11 159.32 150.11 158.8Q150.06 158.8 150.0 158.56Q150.0 157.44 150.8 156.66Q151.29 156.31 151.58 156.31Z M157.89 152.84Q158.93 152.84 159.09 153.84Q159.09 154.3 158.31 154.85Q157.1 154.57 157.1 154.34Q156.93 154.03 156.93 153.15L157.2 152.91Q157.23 152.91 157.44 152.97ZM158.19 156.56H158.36Q158.84 156.56 158.99 157.5V157.56L158.76 157.78Q158.82 157.88 158.88 158.35Q158.76 158.53 158.76 158.69Q158.88 159.0 158.88 159.04L158.7 159.38Q158.76 159.97 158.76 160.3V160.47L158.7 160.81Q158.76 160.9 158.76 161.09V161.22L158.58 161.78V161.84Q158.64 162.03 158.94 162.03H158.99Q159.02 161.78 159.15 161.78H159.33Q159.44 161.78 159.62 162.72Q159.62 162.81 159.39 162.96Q158.72 162.96 158.01 162.94L157.44 163.0L157.14 162.82Q156.6 163.0 156.45 163.0H156.36Q156.26 163.0 156.12 162.37Q156.29 162.16 157.2 162.03H157.32V161.78Q157.32 161.66 157.38 161.56L157.26 161.22Q157.32 160.9 157.32 160.71V160.59Q157.2 159.76 157.2 159.73Q157.32 159.28 157.5 157.94Q157.5 157.9 157.26 157.62V157.56L157.44 157.31L157.14 157.25H156.45Q156.17 157.25 156.12 157.09Q156.12 156.75 156.45 156.62Q157.16 156.75 158.01 156.75Q158.01 156.66 158.19 156.56Z M165.53 156.43Q165.81 156.43 166.04 157.36Q166.04 158.09 165.59 158.23H165.39L164.66 157.59H164.37Q164.24 157.59 163.86 158.5L163.59 158.8L163.65 158.94V159.16Q163.65 159.31 163.52 159.31Q163.59 159.7 163.59 159.88L163.52 160.38Q163.65 160.78 163.79 161.6Q163.65 162.07 163.65 162.25Q163.89 162.25 164.01 162.18Q164.06 162.18 164.3 162.25Q164.7 162.18 164.88 162.18Q165.06 162.18 165.24 162.55Q165.05 162.97 164.73 162.97Q163.79 162.9 163.22 162.9H162.87Q162.8 162.9 162.8 162.82Q161.97 163.04 161.42 163.04Q160.92 162.84 160.92 162.4Q161.0 162.18 161.34 162.18H161.49L162.21 162.25Q162.27 161.75 162.36 161.75Q162.27 160.97 162.21 160.81Q162.29 160.69 162.29 160.53Q162.23 160.53 162.08 160.3L162.14 159.96V159.37L162.29 159.16Q162.08 158.89 162.08 158.72L162.14 158.44L162.08 158.08L162.21 157.71L162.08 157.66H161.07Q160.97 157.66 160.85 157.44Q160.85 156.85 161.15 156.85Q161.21 156.85 161.34 156.93Q162.42 156.64 163.01 156.64Q163.52 156.64 163.65 157.51H163.73Q164.36 156.67 165.39 156.43Z M168.96 156.43 169.58 156.49Q169.64 156.49 169.98 156.43Q170.97 156.43 172.23 157.66Q172.47 157.66 172.92 159.24Q172.77 159.85 172.59 159.85Q170.07 159.56 169.77 159.56Q168.14 159.64 168.14 159.99V160.06Q168.41 160.09 168.41 160.25V160.94Q168.87 161.91 169.16 161.91Q169.43 161.91 169.77 162.25H169.91Q170.42 162.25 171.56 161.22H171.62V161.16L171.5 160.94V160.68Q171.96 160.06 172.11 160.06Q172.79 160.39 172.79 160.54V160.6Q172.79 161.08 172.46 161.08V161.16Q172.46 162.69 169.91 163.0H169.37Q167.58 163.0 167.24 161.49Q166.83 161.11 166.83 160.6Q166.83 160.45 166.91 160.33Q166.83 160.21 166.83 159.99Q166.83 159.69 166.97 159.37Q166.83 159.15 166.83 158.95V158.89L166.97 158.68Q166.91 158.32 166.91 158.06Q168.17 156.43 168.96 156.43ZM168.41 158.47V158.75Q168.47 158.95 168.83 158.95H169.77L170.27 158.83L170.94 158.89Q170.96 158.75 171.08 158.75Q170.67 158.16 170.54 157.53Q169.76 157.1 169.5 157.1Q168.54 157.1 168.54 158.14Q168.42 158.14 168.41 158.47Z M175.29 156.31H176.0Q176.7 156.31 176.96 156.59Q177.05 156.59 177.65 156.4H177.81Q178.14 156.58 178.14 157.1Q177.98 158.54 177.66 158.54H177.45Q177.35 158.54 176.87 157.56Q176.75 157.38 176.3 157.28H175.92Q175.79 157.06 175.71 157.06Q175.61 157.06 175.35 157.39Q174.92 157.39 174.8 158.12Q174.77 158.12 174.77 158.11V158.19Q175.14 158.68 176.06 158.68Q176.06 158.72 176.28 158.77Q176.37 158.72 176.45 158.72Q176.9 158.88 176.97 158.88L177.21 158.83Q177.51 158.83 177.98 159.46Q178.58 159.56 178.58 160.07Q178.62 160.12 178.62 160.48Q178.62 160.59 178.62 160.59L178.73 160.81Q178.73 161.22 178.67 161.22L178.68 161.25V161.31Q178.4 162.53 177.83 162.53Q177.48 163.06 176.3 163.06Q175.4 162.94 175.05 162.62Q174.93 162.62 174.78 162.53Q174.39 162.76 174.26 162.76Q173.76 162.7 173.76 162.41L173.82 162.07L173.75 161.53Q173.87 161.53 173.87 161.49V160.75Q174.09 160.42 174.3 160.42Q174.74 160.42 174.98 161.49Q175.05 161.49 175.5 162.01Q175.8 162.01 176.06 162.19Q176.19 162.12 176.34 162.12H176.49Q176.63 162.12 176.69 162.16Q177.45 162.0 177.45 161.63L177.54 160.74Q177.53 160.38 176.58 160.25L176.0 160.3Q174.35 159.91 174.35 159.55Q173.82 159.32 173.82 158.8Q173.78 158.8 173.72 158.56Q173.72 157.44 174.51 156.66Q175.01 156.31 175.29 156.31Z M185.93 156.43H186.11Q186.29 156.43 186.41 156.44Q186.6 156.43 186.77 156.43H186.87Q187.04 156.43 187.29 156.7Q188.13 156.7 188.48 157.82V157.93Q188.48 157.96 188.4 158.22V158.25Q188.4 158.54 188.45 158.88L188.37 159.25L188.45 160.03Q188.37 160.63 188.37 160.76Q188.4 160.94 188.4 161.03Q188.34 161.19 188.34 161.29L188.4 161.32Q188.61 161.03 188.7 161.03Q188.75 161.0 188.87 161.0H189.0Q189.33 161.17 189.33 161.77Q189.33 162.44 188.66 162.85Q188.39 162.85 188.07 163.0Q186.98 162.66 186.98 162.19H186.92Q186.71 162.38 186.32 162.58Q186.32 162.7 185.93 162.75Q185.84 162.85 185.69 162.85H185.22Q184.98 162.93 184.95 162.93Q184.44 162.93 184.11 162.37Q184.11 162.34 183.77 162.12Q183.74 161.75 183.59 161.4Q183.87 159.96 184.22 159.96Q184.35 159.7 184.77 159.5Q184.77 159.41 185.33 159.22Q185.33 159.19 185.37 159.19L185.58 159.22Q185.78 159.09 185.88 159.09H185.96Q186.11 159.09 186.32 159.25H186.45Q186.62 159.16 186.84 158.84Q187.01 158.77 187.02 158.69V158.56Q186.87 158.41 186.84 158.03Q186.75 157.96 186.59 157.54Q186.39 157.36 186.24 157.36L185.73 157.51L185.55 157.48Q185.48 157.51 185.43 157.51V157.54Q185.58 157.91 185.58 158.22V158.32Q185.58 158.57 184.92 159.12Q184.56 159.01 183.96 158.32V158.17L184.04 158.06V157.71Q184.13 157.53 184.56 157.15Q184.73 157.01 184.85 156.59H184.92Q185.36 156.59 185.93 156.43ZM184.92 160.9Q185.15 161.71 185.4 161.71L185.66 161.77H186.06L186.32 161.63H186.56Q186.84 161.63 186.84 161.37Q186.84 161.28 186.81 161.22Q186.84 160.56 186.95 160.13Q186.83 159.75 186.77 159.67L185.58 159.93Q185.58 159.99 185.13 160.19Q185.13 160.28 184.95 160.63Q184.92 160.81 184.92 160.9Z M191.96 152.8H192.17Q192.48 152.8 192.57 153.01V153.32L192.45 155.97Q192.5 156.16 192.53 157.48L192.45 157.81Q192.5 158.46 192.62 158.63Q192.62 158.72 192.57 159.07L192.62 159.73Q192.53 160.0 192.53 160.03Q192.53 160.1 192.66 160.44Q192.57 161.16 192.41 161.57Q192.45 161.83 192.62 161.83Q193.08 161.74 193.28 161.74H193.4Q193.68 161.94 193.68 162.19Q193.59 162.9 193.28 162.9Q192.78 162.97 192.74 162.97Q192.32 162.97 191.93 162.84Q191.54 162.72 190.73 162.81H190.41Q190.16 162.67 190.16 162.31Q190.37 162.1 190.52 162.1H190.73Q190.91 162.1 191.18 162.15Q191.43 162.06 191.43 161.88Q191.27 161.5 191.27 161.34V161.17Q191.27 160.09 191.1 158.54L191.13 158.38Q191.13 158.32 191.1 157.72Q191.1 157.59 191.18 156.87Q190.98 155.74 190.98 155.56Q191.03 154.82 191.1 154.57L191.07 154.41Q191.13 154.27 191.13 154.15V153.94Q191.04 153.78 190.86 153.72L190.46 153.75Q190.26 153.67 190.25 153.58V153.41Q190.25 153.12 191.3 152.97Q191.3 152.91 191.96 152.8Z M196.73 152.8H196.94Q197.25 152.8 197.34 153.01V153.32L197.22 155.97Q197.27 156.16 197.3 157.48L197.22 157.81Q197.27 158.46 197.39 158.63Q197.39 158.72 197.34 159.07L197.39 159.73Q197.3 160.0 197.3 160.03Q197.3 160.1 197.43 160.44Q197.34 161.16 197.18 161.57Q197.22 161.83 197.39 161.83Q197.85 161.74 198.05 161.74H198.17Q198.45 161.94 198.45 162.19Q198.36 162.9 198.05 162.9Q197.55 162.97 197.51 162.97Q197.09 162.97 196.7 162.84Q196.31 162.72 195.5 162.81H195.18Q194.93 162.67 194.93 162.31Q195.14 162.1 195.29 162.1H195.5Q195.68 162.1 195.95 162.15Q196.2 162.06 196.2 161.88Q196.04 161.5 196.04 161.34V161.17Q196.04 160.09 195.87 158.54L195.9 158.38Q195.9 158.32 195.87 157.72Q195.87 157.59 195.95 156.87Q195.75 155.74 195.75 155.56Q195.8 154.82 195.87 154.57L195.84 154.41Q195.9 154.27 195.9 154.15V153.94Q195.81 153.78 195.63 153.72L195.23 153.75Q195.03 153.67 195.02 153.58V153.41Q195.02 153.12 196.07 152.97Q196.07 152.91 196.73 152.8Z M205.26 156.31H205.97Q206.67 156.31 206.93 156.59Q207.02 156.59 207.62 156.4H207.78Q208.11 156.58 208.11 157.1Q207.95 158.54 207.63 158.54H207.42Q207.32 158.54 206.84 157.56Q206.72 157.38 206.27 157.28H205.89Q205.76 157.06 205.68 157.06Q205.58 157.06 205.32 157.39Q204.89 157.39 204.77 158.12Q204.74 158.12 204.74 158.11V158.19Q205.11 158.68 206.03 158.68Q206.03 158.72 206.25 158.77Q206.34 158.72 206.42 158.72Q206.87 158.88 206.94 158.88L207.18 158.83Q207.48 158.83 207.95 159.46Q208.55 159.56 208.55 160.07Q208.59 160.12 208.59 160.48Q208.59 160.59 208.59 160.59L208.7 160.81Q208.7 161.22 208.64 161.22L208.65 161.25V161.31Q208.37 162.53 207.8 162.53Q207.45 163.06 206.27 163.06Q205.37 162.94 205.02 162.62Q204.9 162.62 204.75 162.53Q204.36 162.76 204.23 162.76Q203.73 162.7 203.73 162.41L203.79 162.07L203.72 161.53Q203.84 161.53 203.84 161.49V160.75Q204.06 160.42 204.27 160.42Q204.71 160.42 204.95 161.49Q205.02 161.49 205.47 162.01Q205.77 162.01 206.03 162.19Q206.16 162.12 206.31 162.12H206.46Q206.6 162.12 206.66 162.16Q207.42 162.0 207.42 161.63L207.51 160.74Q207.5 160.38 206.55 160.25L205.97 160.3Q204.32 159.91 204.32 159.55Q203.79 159.32 203.79 158.8Q203.75 158.8 203.69 158.56Q203.69 157.44 204.48 156.66Q204.98 156.31 205.26 156.31Z M211.38 154.81H212.22Q212.7 154.81 212.7 155.23Q212.61 156.37 212.51 156.61Q212.57 156.7 212.57 156.76H212.84Q212.91 156.76 213.03 156.24L213.45 155.89H213.56Q214.11 156.19 214.11 156.66Q214.17 156.66 214.17 156.7V156.81Q214.1 157.51 213.65 157.51Q213.65 157.45 213.5 157.38H213.32Q212.7 157.44 212.7 157.69Q212.66 158.03 212.66 158.08Q212.66 158.19 212.7 158.28Q212.66 158.68 212.66 158.94V159.5L212.81 160.18Q212.66 161.11 212.66 161.35Q212.66 162.18 213.08 162.58H213.18Q213.32 162.58 213.32 162.4L213.27 162.07Q213.42 161.49 213.69 161.49Q213.69 161.44 213.89 161.35H213.93Q214.19 161.35 214.41 162.44Q214.19 163.25 212.66 163.3H212.46Q211.98 163.3 211.28 162.25V161.83Q211.28 161.37 211.19 160.21Q211.28 160.06 211.28 159.93V159.88Q211.04 159.56 211.04 159.41V159.37Q211.04 158.78 211.38 158.08Q211.38 157.81 211.43 157.75Q211.43 157.69 211.23 157.51L210.9 157.57H210.77Q210.53 157.57 210.53 157.47L210.42 157.51H210.24Q210.09 157.51 210.0 156.96Q210.0 156.7 210.24 156.56H210.29Q210.9 156.7 210.95 156.7H211.04Q211.04 156.59 211.23 156.43Q210.99 156.04 210.99 155.16Q211.28 154.84 211.38 154.81Z M217.5 152.84Q218.54 152.84 218.7 153.84Q218.7 154.3 217.92 154.85Q216.71 154.57 216.71 154.34Q216.54 154.03 216.54 153.15L216.81 152.91Q216.84 152.91 217.05 152.97ZM217.8 156.56H217.97Q218.45 156.56 218.6 157.5V157.56L218.37 157.78Q218.43 157.88 218.49 158.35Q218.37 158.53 218.37 158.69Q218.49 159.0 218.49 159.04L218.31 159.38Q218.37 159.97 218.37 160.3V160.47L218.31 160.81Q218.37 160.9 218.37 161.09V161.22L218.19 161.78V161.84Q218.25 162.03 218.55 162.03H218.6Q218.63 161.78 218.76 161.78H218.94Q219.05 161.78 219.23 162.72Q219.23 162.81 219.0 162.96Q218.33 162.96 217.62 162.94L217.05 163.0L216.75 162.82Q216.21 163.0 216.06 163.0H215.97Q215.87 163.0 215.73 162.37Q215.9 162.16 216.81 162.03H216.93V161.78Q216.93 161.66 216.99 161.56L216.87 161.22Q216.93 160.9 216.93 160.71V160.59Q216.81 159.76 216.81 159.73Q216.93 159.28 217.11 157.94Q217.11 157.9 216.87 157.62V157.56L217.05 157.31L216.75 157.25H216.06Q215.78 157.25 215.73 157.09Q215.73 156.75 216.06 156.62Q216.77 156.75 217.62 156.75Q217.62 156.66 217.8 156.56Z M222.41 152.8H222.62Q222.93 152.8 223.02 153.01V153.32L222.9 155.97Q222.95 156.16 222.98 157.48L222.9 157.81Q222.95 158.46 223.07 158.63Q223.07 158.72 223.02 159.07L223.07 159.73Q222.98 160.0 222.98 160.03Q222.98 160.1 223.11 160.44Q223.02 161.16 222.86 161.57Q222.9 161.83 223.07 161.83Q223.53 161.74 223.73 161.74H223.85Q224.13 161.94 224.13 162.19Q224.04 162.9 223.73 162.9Q223.23 162.97 223.19 162.97Q222.77 162.97 222.38 162.84Q221.99 162.72 221.18 162.81H220.86Q220.61 162.67 220.61 162.31Q220.82 162.1 220.97 162.1H221.18Q221.36 162.1 221.63 162.15Q221.88 162.06 221.88 161.88Q221.72 161.5 221.72 161.34V161.17Q221.72 160.09 221.55 158.54L221.58 158.38Q221.58 158.32 221.55 157.72Q221.55 157.59 221.63 156.87Q221.43 155.74 221.43 155.56Q221.48 154.82 221.55 154.57L221.52 154.41Q221.58 154.27 221.58 154.15V153.94Q221.49 153.78 221.31 153.72L220.91 153.75Q220.71 153.67 220.7 153.58V153.41Q220.7 153.12 221.75 152.97Q221.75 152.91 222.41 152.8Z M227.18 152.8H227.39Q227.7 152.8 227.79 153.01V153.32L227.67 155.97Q227.72 156.16 227.75 157.48L227.67 157.81Q227.72 158.46 227.84 158.63Q227.84 158.72 227.79 159.07L227.84 159.73Q227.75 160.0 227.75 160.03Q227.75 160.1 227.88 160.44Q227.79 161.16 227.63 161.57Q227.67 161.83 227.84 161.83Q228.3 161.74 228.5 161.74H228.62Q228.9 161.94 228.9 162.19Q228.81 162.9 228.5 162.9Q228.0 162.97 227.96 162.97Q227.54 162.97 227.15 162.84Q226.76 162.72 225.95 162.81H225.63Q225.38 162.67 225.38 162.31Q225.59 162.1 225.74 162.1H225.95Q226.13 162.1 226.4 162.15Q226.65 162.06 226.65 161.88Q226.49 161.5 226.49 161.34V161.17Q226.49 160.09 226.32 158.54L226.35 158.38Q226.35 158.32 226.32 157.72Q226.32 157.59 226.4 156.87Q226.2 155.74 226.2 155.56Q226.25 154.82 226.32 154.57L226.29 154.41Q226.35 154.27 226.35 154.15V153.94Q226.26 153.78 226.08 153.72L225.68 153.75Q225.48 153.67 225.47 153.58V153.41Q225.47 153.12 226.52 152.97Q226.52 152.91 227.18 152.8Z M231.8 156.43 232.41 156.49Q232.47 156.49 232.82 156.43Q233.81 156.43 235.07 157.66Q235.31 157.66 235.76 159.24Q235.61 159.85 235.43 159.85Q232.91 159.56 232.61 159.56Q230.97 159.64 230.97 159.99V160.06Q231.24 160.09 231.24 160.25V160.94Q231.71 161.91 231.99 161.91Q232.26 161.91 232.61 162.25H232.74Q233.25 162.25 234.39 161.22H234.45V161.16L234.33 160.94V160.68Q234.8 160.06 234.95 160.06Q235.62 160.39 235.62 160.54V160.6Q235.62 161.08 235.29 161.08V161.16Q235.29 162.69 232.74 163.0H232.2Q230.42 163.0 230.07 161.49Q229.67 161.11 229.67 160.6Q229.67 160.45 229.74 160.33Q229.67 160.21 229.67 159.99Q229.67 159.69 229.8 159.37Q229.67 159.15 229.67 158.95V158.89L229.8 158.68Q229.74 158.32 229.74 158.06Q231.0 156.43 231.8 156.43ZM231.24 158.47V158.75Q231.3 158.95 231.66 158.95H232.61L233.1 158.83L233.78 158.89Q233.79 158.75 233.91 158.75Q233.51 158.16 233.37 157.53Q232.59 157.1 232.34 157.1Q231.38 157.1 231.38 158.14Q231.26 158.14 231.24 158.47Z M241.77 152.74H241.82Q242.27 152.74 242.57 153.12V153.15Q242.36 153.96 242.36 154.6Q242.39 155.4 242.43 155.4L242.25 155.83Q242.39 156.09 242.46 156.43Q242.31 156.82 242.31 156.88Q242.39 157.03 242.39 157.09Q242.31 157.97 242.31 158.28Q242.39 158.38 242.39 158.49V158.71Q242.31 158.95 242.31 158.98Q242.39 159.1 242.39 159.21Q242.39 159.29 242.22 159.67Q242.39 159.96 242.39 160.0Q242.31 160.22 242.31 160.28Q242.36 160.54 242.36 160.57Q242.28 160.72 242.28 160.79Q242.28 161.11 242.49 161.44Q242.46 161.68 242.46 161.83V161.98Q242.48 162.06 242.54 162.06Q242.85 162.01 242.9 162.01Q243.24 162.01 243.36 162.29Q243.27 163.01 242.79 163.01Q242.67 162.94 242.57 162.94H242.22Q241.61 162.87 241.53 162.87H241.25Q240.96 162.87 240.96 162.59V162.37Q240.89 162.37 240.89 162.32Q240.21 162.59 239.7 162.94Q239.51 162.94 239.3 162.97Q239.21 162.97 238.73 162.76Q238.61 162.84 238.52 162.84Q237.78 162.62 237.51 162.25Q237.5 162.21 236.97 161.98Q236.97 161.88 236.43 160.93Q236.43 160.76 236.33 160.31Q236.33 159.85 236.72 158.34Q236.94 158.16 237.47 157.34Q237.74 157.34 238.31 156.84L238.49 156.88H238.58L238.77 156.84Q238.77 156.88 238.8 156.88Q238.8 156.76 239.27 156.76H239.42Q240.6 157.06 240.6 157.27Q240.71 157.36 240.89 157.42L240.93 157.27Q240.93 157.16 240.81 157.03V156.84Q240.81 156.81 240.89 156.55V156.38L240.81 156.26V156.01Q240.81 155.86 240.89 155.54Q240.89 155.29 240.81 154.75Q240.89 154.59 240.89 154.44Q240.81 154.44 240.81 154.36V154.0Q240.77 154.0 240.45 154.03Q240.42 154.03 240.24 154.0Q239.87 154.18 239.76 154.18H239.63Q239.4 154.18 239.3 153.96L239.34 153.72L239.3 153.46Q239.3 153.07 239.6 153.07Q239.61 153.07 239.75 153.04Q239.99 153.07 240.17 153.07Q241.41 152.74 241.77 152.74ZM238.31 157.94Q238.34 158.16 238.34 158.28Q238.29 158.28 238.08 158.53Q238.11 158.71 238.11 158.74Q238.08 159.04 237.93 159.38Q238.08 159.64 238.08 159.75Q238.01 159.87 238.01 159.97L238.11 160.42L238.08 160.65V160.81Q238.23 161.02 238.26 161.5Q238.55 161.72 238.55 161.83Q238.55 162.32 239.13 162.32Q239.64 162.32 240.02 161.98Q240.3 161.98 240.6 161.53Q240.83 161.53 240.96 161.22V161.03L240.89 160.93V159.85Q241.01 159.7 241.01 159.56L240.96 159.32L241.05 159.13Q240.86 158.98 240.86 158.34Q240.57 157.69 239.84 157.38H239.75Q238.38 157.5 238.38 157.74Q238.31 157.88 238.31 157.94Z M245.57 160.84Q246.3 160.88 246.48 161.08Q246.54 161.16 246.63 161.38Q246.71 161.57 246.72 161.96Q246.74 162.35 246.66 162.5Q246.62 162.59 246.47 162.72Q246.32 162.84 246.26 162.84Q246.21 162.84 246.17 162.94Q246.09 163.19 245.45 163.09Q245.13 163.03 245.08 162.93Q245.03 162.82 244.86 162.7Q244.67 162.58 244.61 162.42Q244.55 162.26 244.55 161.91Q244.55 161.17 244.86 161.02Q245.0 160.94 245.05 160.88Q245.1 160.81 245.57 160.84Z"/></g>
</svg>